<?xml version="1.0" encoding="utf-8"?>
<!-- Generator: Adobe Illustrator 24.2.0, SVG Export Plug-In . SVG Version: 6.00 Build 0)  -->
<svg version="1.1" id="Ebene_1" xmlns="http://www.w3.org/2000/svg" xmlns:xlink="http://www.w3.org/1999/xlink" x="0px" y="0px"
	 viewBox="0 0 67.26 28.35" style="enable-background:new 0 0 67.26 28.35;" xml:space="preserve">
<style type="text/css">
	.st0{fill:#00A4E0;}
</style>
<g id="Ebene_2_1_">
	<g id="Ebene_1-2">
		<path class="st0" d="M36.93,23.69c-2.23,0-4.49-1.46-6.07-2.51c-1.41-1.05-3.1-1.65-4.86-1.7c-1.8,0.07-3.55,0.67-5,1.74
			c-1.79,1.09-3.57,2.39-7,2.39c-5.83,0-9.15-4-9.15-9.56c-0.21-4.93,3.61-9.09,8.54-9.3c0.15-0.01,0.31-0.01,0.46-0.01
			c2.68-0.14,5.31,0.78,7.33,2.55l2.67-3.81c-2.8-2.34-6.35-3.57-10-3.48C6.3-0.1,0.1,5.93,0,13.48c0,0.19,0,0.38,0,0.57
			c0,8.34,5.71,14.3,14,14.3c2.77-0.03,5.47-0.84,7.79-2.35c1.33-0.85,2.59-1.87,4-1.87s2.14,0.49,3.92,1.67s4.13,2.55,6.81,2.55
			c2.67-0.02,5.24-1,7.25-2.76l-2.64-3.4C39.95,23.18,38.46,23.71,36.93,23.69z"/>
		<path class="st0" d="M60.54,12.51l-3-1.25c-2.39-1-3.92-1.66-3.92-3.48s1.7-3.29,4.85-3.29c1.98,0.05,3.89,0.75,5.43,2l2.59-3.56
			C64.1,1.02,61.13-0.01,58.07,0c-5.22,0-9.15,3.4-9.15,8.1c0,3.81,3.16,5.87,6,7.13L56.7,16c3.93,1.7,5.71,2.34,5.71,4.45
			c0,1.78-1.66,3.28-4.86,3.28c-3.64,0-6.23-2.19-8.5-4.94c-3.16-3.64-5.31-5.43-10-6.76c-5-1.38-6.4-2.31-6.4-4.25
			c0-1.79,1.7-3.29,4.86-3.29c1.98,0.05,3.88,0.76,5.42,2l2.6-3.56c-2.4-1.91-5.37-2.94-8.44-2.93c-5.22,0-9.15,3.4-9.15,8.1
			c0,5.34,4.9,7.05,9,8.22s6.12,2.35,9,6.24c2.69,3.67,6.99,5.82,11.54,5.79c5.83,0,9.84-3,9.84-8
			C67.26,17.49,65.8,14.74,60.54,12.51z"/>
	</g>
</g>
</svg>
