<?xml version="1.0" encoding="UTF-8" standalone="no"?>
<!DOCTYPE svg PUBLIC "-//W3C//DTD SVG 1.1//EN" "http://www.w3.org/Graphics/SVG/1.1/DTD/svg11.dtd">
<svg width="100%" height="100%" viewBox="0 0 890 191" version="1.1" xmlns="http://www.w3.org/2000/svg" xmlns:xlink="http://www.w3.org/1999/xlink" xml:space="preserve" xmlns:serif="http://www.serif.com/" style="fill-rule:evenodd;clip-rule:evenodd;stroke-linejoin:round;stroke-miterlimit:2;">
    <g id="g5" transform="matrix(1,0,0,1,-195.318,-540.72)">
        <g id="g7">
            <path id="path9" d="M251.237,730.983L248.367,730.983L245.764,721.814L238.039,721.814L235.402,730.983L232.566,730.983L240.257,704.795L243.544,704.795L251.237,730.983ZM244.98,719.16L241.893,708.321L238.824,719.16L244.98,719.16Z" style="fill-rule:nonzero;"/>
            <path id="path11" d="M290.496,729.349C288.649,730.773 286.509,731.484 284.072,731.484C281.024,731.484 278.708,730.321 277.123,727.995C275.538,725.669 274.746,722.304 274.746,717.898C274.746,713.641 275.514,710.31 277.048,707.903C278.583,705.497 280.924,704.294 284.072,704.294C285.207,704.294 286.33,704.455 287.443,704.776C288.555,705.098 289.45,705.525 290.129,706.056L289.228,708.451C287.66,707.462 285.941,706.967 284.072,706.967C281.903,706.967 280.29,707.842 279.234,709.593C278.177,711.344 277.649,714.113 277.649,717.899C277.649,725.174 279.79,728.812 284.072,728.812C285.885,728.812 287.743,728.194 289.645,726.957L290.496,729.349Z" style="fill-rule:nonzero;"/>
            <path id="path13" d="M303.343,704.293C305.979,704.293 307.99,705.453 309.375,707.772C310.76,710.092 311.452,713.467 311.452,717.897C311.452,722.302 310.762,725.668 309.383,727.994C308.004,730.32 305.99,731.483 303.343,731.483C300.718,731.483 298.713,730.323 297.328,728.004C295.943,725.684 295.25,722.315 295.25,717.898C295.25,713.481 295.94,710.109 297.319,707.783C298.699,705.456 300.707,704.293 303.343,704.293ZM303.343,728.811C306.813,728.811 308.549,725.173 308.549,717.898C308.549,710.61 306.814,706.966 303.343,706.966C301.652,706.966 300.365,707.909 299.48,709.796C298.596,711.683 298.154,714.384 298.154,717.898C298.154,721.45 298.593,724.156 299.472,726.018C300.351,727.88 301.642,728.811 303.343,728.811Z" style="fill-rule:nonzero;"/>
            <path id="path15" d="M331.475,730.983L328.838,730.983L328.838,708.525L325.284,719.271L322.698,719.271L319.144,708.525L319.144,730.983L316.508,730.983L316.508,704.795L320.062,704.795L324,716.73L327.921,704.795L331.475,704.795L331.475,730.983Z" style="fill-rule:nonzero;"/>
            <path id="path17" d="M338.414,704.794L344.388,704.794C346.646,704.794 348.453,705.425 349.81,706.688C351.167,707.95 351.846,709.688 351.846,711.903C351.846,714.131 351.17,715.909 349.819,717.239C348.468,718.569 346.696,719.234 344.505,719.234L341.151,719.234L341.151,730.983L338.415,730.983L338.415,704.794L338.414,704.794ZM341.149,716.58L344.12,716.58C347.335,716.58 348.942,715.083 348.942,712.088C348.942,710.702 348.505,709.582 347.632,708.729C346.758,707.875 345.632,707.449 344.253,707.449L341.149,707.449L341.149,716.58Z" style="fill-rule:nonzero;"/>
            <path id="path19" d="M371.667,722.742C371.667,725.774 371.113,727.989 370.007,729.388C368.9,730.785 367.217,731.485 364.96,731.485C360.411,731.485 358.136,728.596 358.136,722.817L358.136,704.796L360.872,704.796L360.872,722.539C360.872,726.722 362.234,728.812 364.959,728.812C366.327,728.812 367.331,728.318 367.97,727.328C368.609,726.338 368.93,724.729 368.93,722.502L368.93,704.796L371.666,704.796L371.666,722.742L371.667,722.742Z" style="fill-rule:nonzero;"/>
            <path id="path21" d="M394.058,707.263L386.8,707.263L386.8,730.983L384.08,730.983L384.08,707.263L376.789,707.263L376.789,704.794L394.058,704.794L394.058,707.263Z" style="fill-rule:nonzero;"/>
            <path id="path23" d="M412.227,730.983L399.931,730.983L399.931,704.795L412.127,704.795L412.127,707.449L402.667,707.449L402.667,715.559L411.76,715.559L411.76,718.213L402.667,718.213L402.667,728.328L412.227,728.328L412.227,730.983Z" style="fill-rule:nonzero;"/>
            <path id="path25" d="M435.752,730.983L432.332,730.983L425.425,719.086L422.388,719.086L422.388,730.983L419.652,730.983L419.652,704.795L426.309,704.795C428.545,704.795 430.311,705.399 431.607,706.605C432.902,707.811 433.55,709.491 433.55,711.644C433.55,713.241 433.077,714.66 432.132,715.904C431.186,717.147 429.885,717.992 428.228,718.437L435.752,730.983ZM422.388,716.432L425.842,716.432C427.287,716.432 428.461,715.995 429.363,715.123C430.263,714.25 430.714,713.152 430.714,711.828C430.714,708.908 429.112,707.448 425.909,707.448L422.388,707.448L422.388,716.432Z" style="fill-rule:nonzero;"/>
            <path id="path27" d="M461.446,704.794L467.42,704.794C469.678,704.794 471.485,705.425 472.842,706.688C474.199,707.95 474.878,709.688 474.878,711.903C474.878,714.131 474.202,715.909 472.851,717.239C471.5,718.569 469.728,719.234 467.537,719.234L464.183,719.234L464.183,730.983L461.447,730.983L461.447,704.794L461.446,704.794ZM464.182,716.58L467.153,716.58C470.368,716.58 471.975,715.083 471.975,712.088C471.975,710.702 471.538,709.582 470.665,708.729C469.791,707.875 468.665,707.449 467.286,707.449L464.182,707.449L464.182,716.58Z" style="fill-rule:nonzero;"/>
            <path id="path29" d="M497.268,730.983L493.847,730.983L486.94,719.086L483.904,719.086L483.904,730.983L481.168,730.983L481.168,704.795L487.825,704.795C490.06,704.795 491.826,705.399 493.122,706.605C494.418,707.811 495.066,709.491 495.066,711.644C495.066,713.241 494.593,714.66 493.648,715.904C492.703,717.147 491.401,717.992 489.744,718.437L497.268,730.983ZM483.904,716.432L487.357,716.432C488.803,716.432 489.977,715.995 490.878,715.123C491.779,714.25 492.23,713.152 492.23,711.828C492.23,708.908 490.628,707.448 487.425,707.448L483.904,707.448L483.904,716.432Z" style="fill-rule:nonzero;"/>
            <path id="path31" d="M508.397,704.293C511.033,704.293 513.044,705.453 514.429,707.772C515.814,710.092 516.506,713.467 516.506,717.897C516.506,722.302 515.816,725.668 514.437,727.994C513.058,730.32 511.044,731.483 508.397,731.483C505.772,731.483 503.767,730.323 502.382,728.004C500.997,725.684 500.304,722.315 500.304,717.898C500.304,713.481 500.994,710.109 502.373,707.783C503.753,705.456 505.761,704.293 508.397,704.293ZM508.397,728.811C511.867,728.811 513.603,725.173 513.603,717.898C513.603,710.61 511.868,706.966 508.397,706.966C506.706,706.966 505.419,707.909 504.534,709.796C503.65,711.683 503.208,714.384 503.208,717.898C503.208,721.45 503.647,724.156 504.526,726.018C505.405,727.88 506.695,728.811 508.397,728.811Z" style="fill-rule:nonzero;"/>
            <path id="path33" d="M536.527,729.126C534.602,730.698 532.472,731.483 530.136,731.483C527.077,731.483 524.758,730.33 523.179,728.022C521.599,725.714 520.81,722.339 520.81,717.897C520.81,713.603 521.575,710.262 523.104,707.875C524.633,705.488 526.977,704.293 530.136,704.293C531.271,704.293 532.394,704.454 533.507,704.775C534.619,705.097 535.514,705.524 536.193,706.055L535.292,708.45C533.724,707.461 532.005,706.966 530.136,706.966C527.978,706.966 526.368,707.844 525.306,709.601C524.244,711.359 523.713,714.124 523.713,717.898C523.713,725.173 525.854,728.811 530.136,728.811C531.749,728.811 532.967,728.434 533.79,727.679L533.79,721.22L529.552,721.22L529.552,718.584L536.527,718.584L536.527,729.126Z" style="fill-rule:nonzero;"/>
            <path id="path35" d="M558.784,730.983L555.364,730.983L548.457,719.086L545.42,719.086L545.42,730.983L542.684,730.983L542.684,704.795L549.341,704.795C551.577,704.795 553.343,705.399 554.639,706.605C555.934,707.811 556.582,709.491 556.582,711.644C556.582,713.241 556.109,714.66 555.164,715.904C554.218,717.147 552.917,717.992 551.26,718.437L558.784,730.983ZM545.42,716.432L548.874,716.432C550.319,716.432 551.493,715.995 552.395,715.123C553.295,714.25 553.746,713.152 553.746,711.828C553.746,708.908 552.144,707.448 548.941,707.448L545.42,707.448L545.42,716.432Z" style="fill-rule:nonzero;"/>
            <path id="path37" d="M579.323,730.983L576.453,730.983L573.85,721.814L566.125,721.814L563.488,730.983L560.652,730.983L568.343,704.795L571.63,704.795L579.323,730.983ZM573.066,719.16L569.979,708.321L566.91,719.16L573.066,719.16Z" style="fill-rule:nonzero;"/>
            <path id="path39" d="M598.044,730.983L595.407,730.983L595.407,708.525L591.853,719.271L589.267,719.271L585.713,708.525L585.713,730.983L583.077,730.983L583.077,704.795L586.631,704.795L590.569,716.73L594.49,704.795L598.044,704.795L598.044,730.983Z" style="fill-rule:nonzero;"/>
            <path id="path41" d="M618.55,730.983L615.913,730.983L615.913,708.525L612.359,719.271L609.773,719.271L606.219,708.525L606.219,730.983L603.583,730.983L603.583,704.795L607.137,704.795L611.075,716.73L614.996,704.795L618.55,704.795L618.55,730.983Z" style="fill-rule:nonzero;"/>
            <path id="path43" d="M636.701,730.983L626.007,730.983L626.007,728.329L630.061,728.329L630.061,707.449L626.007,707.449L626.007,704.795L636.701,704.795L636.701,707.449L632.797,707.449L632.797,728.329L636.701,728.329L636.701,730.983Z" style="fill-rule:nonzero;"/>
            <path id="path45" d="M659.076,730.983L656.039,730.983L647.597,710.307L647.597,730.983L644.861,730.983L644.861,704.795L647.914,704.795L656.39,725.285L656.39,704.795L659.076,704.795L659.076,730.983Z" style="fill-rule:nonzero;"/>
            <path id="path47" d="M680.064,729.126C678.14,730.698 676.01,731.483 673.674,731.483C670.615,731.483 668.296,730.33 666.716,728.022C665.137,725.714 664.347,722.339 664.347,717.897C664.347,713.603 665.112,710.262 666.641,707.875C668.17,705.487 670.515,704.293 673.674,704.293C674.808,704.293 675.932,704.454 677.044,704.775C678.156,705.097 679.052,705.524 679.731,706.055L678.83,708.45C677.262,707.461 675.543,706.966 673.675,706.966C671.517,706.966 669.906,707.844 668.845,709.601C667.783,711.359 667.251,714.124 667.251,717.898C667.251,725.173 669.392,728.811 673.675,728.811C675.287,728.811 676.506,728.434 677.329,727.679L677.329,721.22L673.091,721.22L673.091,718.584L680.065,718.584L680.065,729.126L680.064,729.126Z" style="fill-rule:nonzero;"/>
            <path id="path49" d="M721.109,729.349C719.263,730.773 717.121,731.484 714.686,731.484C711.638,731.484 709.322,730.321 707.737,727.995C706.152,725.669 705.359,722.304 705.359,717.898C705.359,713.641 706.127,710.31 707.662,707.903C709.197,705.497 711.538,704.294 714.686,704.294C715.82,704.294 716.944,704.455 718.056,704.776C719.168,705.098 720.064,705.525 720.743,706.056L719.842,708.451C718.274,707.462 716.555,706.967 714.687,706.967C712.518,706.967 710.905,707.842 709.848,709.593C708.791,711.344 708.263,714.113 708.263,717.899C708.263,725.174 710.404,728.812 714.687,728.812C716.499,728.812 718.357,728.194 720.259,726.957L721.109,729.349Z" style="fill-rule:nonzero;"/>
            <path id="path51" d="M733.956,704.293C736.592,704.293 738.602,705.453 739.987,707.772C741.372,710.092 742.064,713.467 742.064,717.897C742.064,722.302 741.375,725.668 739.996,727.994C738.616,730.32 736.603,731.483 733.956,731.483C731.331,731.483 729.326,730.323 727.941,728.004C726.556,725.684 725.864,722.315 725.864,717.898C725.864,713.481 726.553,710.109 727.932,707.783C729.312,705.456 731.32,704.293 733.956,704.293ZM733.956,728.811C737.427,728.811 739.162,725.173 739.162,717.898C739.162,710.61 737.427,706.966 733.956,706.966C732.265,706.966 730.977,707.909 730.094,709.796C729.209,711.683 728.767,714.384 728.767,717.898C728.767,721.45 729.206,724.156 730.085,726.018C730.964,727.88 732.254,728.811 733.956,728.811Z" style="fill-rule:nonzero;"/>
            <path id="path53" d="M761.603,730.983L758.565,730.983L750.123,710.307L750.123,730.983L747.387,730.983L747.387,704.795L750.44,704.795L758.916,725.285L758.916,704.795L761.603,704.795L761.603,730.983Z" style="fill-rule:nonzero;"/>
            <path id="path55" d="M783.659,707.263L776.401,707.263L776.401,730.983L773.682,730.983L773.682,707.263L766.39,707.263L766.39,704.794L783.659,704.794L783.659,707.263Z" style="fill-rule:nonzero;"/>
            <path id="path57" d="M804.849,730.983L801.429,730.983L794.522,719.086L791.485,719.086L791.485,730.983L788.749,730.983L788.749,704.795L795.406,704.795C797.642,704.795 799.408,705.399 800.704,706.605C801.999,707.811 802.647,709.491 802.647,711.644C802.647,713.241 802.174,714.66 801.229,715.904C800.283,717.147 798.982,717.992 797.325,718.437L804.849,730.983ZM791.484,716.432L794.938,716.432C796.383,716.432 797.557,715.995 798.459,715.123C799.359,714.25 799.81,713.152 799.81,711.828C799.81,708.908 798.208,707.448 795.005,707.448L791.484,707.448L791.484,716.432Z" style="fill-rule:nonzero;"/>
            <path id="path59" d="M821.25,730.983L810.555,730.983L810.555,728.329L814.609,728.329L814.609,707.449L810.555,707.449L810.555,704.795L821.25,704.795L821.25,707.449L817.346,707.449L817.346,728.329L821.25,728.329L821.25,730.983Z" style="fill-rule:nonzero;"/>
            <path id="path61" d="M839.352,716.618C840.92,717.026 842.149,717.818 843.04,718.993C843.93,720.169 844.375,721.567 844.375,723.188C844.375,725.563 843.599,727.457 842.047,728.867C840.496,730.278 838.63,730.983 836.449,730.983L829.759,730.983L829.759,704.795L836.283,704.795C838.552,704.795 840.326,705.349 841.605,706.456C842.884,707.563 843.524,709.126 843.524,711.143C843.524,712.38 843.154,713.482 842.414,714.447C841.674,715.412 840.654,716.111 839.352,716.545L839.352,716.618ZM832.495,715.206L835.699,715.206C839.047,715.206 840.721,713.876 840.721,711.216C840.721,710.003 840.309,709.072 839.487,708.423C838.664,707.773 837.457,707.448 835.866,707.448L832.496,707.448L832.496,715.206L832.495,715.206ZM832.495,728.328L835.599,728.328C837.412,728.328 838.85,727.871 839.912,726.955C840.974,726.039 841.505,724.783 841.505,723.187C841.505,721.492 840.982,720.18 839.937,719.251C838.891,718.323 837.378,717.859 835.399,717.859L832.496,717.859L832.496,728.328L832.495,728.328Z" style="fill-rule:nonzero;"/>
            <path id="path63" d="M863.796,722.742C863.796,725.774 863.242,727.989 862.136,729.388C861.029,730.785 859.346,731.485 857.089,731.485C852.54,731.485 850.265,728.596 850.265,722.817L850.265,704.796L853.001,704.796L853.001,722.539C853.001,726.722 854.363,728.812 857.088,728.812C858.456,728.812 859.46,728.318 860.099,727.328C860.738,726.338 861.059,724.729 861.059,722.502L861.059,704.796L863.795,704.796L863.795,722.742L863.796,722.742Z" style="fill-rule:nonzero;"/>
            <path id="path65" d="M886.186,707.263L878.928,707.263L878.928,730.983L876.208,730.983L876.208,707.263L868.917,707.263L868.917,704.794L886.186,704.794L886.186,707.263Z" style="fill-rule:nonzero;"/>
            <path id="path67" d="M897.999,704.293C900.635,704.293 902.645,705.453 904.03,707.772C905.415,710.092 906.107,713.467 906.107,717.897C906.107,722.302 905.418,725.668 904.039,727.994C902.659,730.32 900.646,731.483 897.999,731.483C895.374,731.483 893.369,730.323 891.984,728.004C890.599,725.684 889.907,722.315 889.907,717.898C889.907,713.481 890.596,710.109 891.975,707.783C893.355,705.456 895.363,704.293 897.999,704.293ZM897.999,728.811C901.47,728.811 903.205,725.173 903.205,717.898C903.205,710.61 901.47,706.966 897.999,706.966C896.308,706.966 895.02,707.909 894.137,709.796C893.252,711.683 892.81,714.384 892.81,717.898C892.81,721.45 893.249,724.156 894.128,726.018C895.007,727.88 896.297,728.811 897.999,728.811Z" style="fill-rule:nonzero;"/>
            <path id="path69" d="M927.881,730.983L924.461,730.983L917.554,719.086L914.517,719.086L914.517,730.983L911.781,730.983L911.781,704.795L918.438,704.795C920.674,704.795 922.44,705.399 923.736,706.605C925.031,707.811 925.679,709.491 925.679,711.644C925.679,713.241 925.206,714.66 924.261,715.904C923.315,717.147 922.014,717.992 920.357,718.437L927.881,730.983ZM914.517,716.432L917.971,716.432C919.416,716.432 920.59,715.995 921.492,715.123C922.392,714.25 922.843,713.152 922.843,711.828C922.843,708.908 921.241,707.448 918.038,707.448L914.517,707.448L914.517,716.432Z" style="fill-rule:nonzero;"/>
            <path id="path71" d="M967.14,729.126C965.216,730.698 963.086,731.483 960.75,731.483C957.691,731.483 955.372,730.33 953.792,728.022C952.213,725.714 951.423,722.339 951.423,717.897C951.423,713.603 952.188,710.262 953.717,707.875C955.246,705.487 957.591,704.293 960.75,704.293C961.884,704.293 963.008,704.454 964.12,704.775C965.232,705.097 966.128,705.524 966.807,706.055L965.906,708.45C964.338,707.461 962.619,706.966 960.751,706.966C958.593,706.966 956.982,707.844 955.921,709.601C954.859,711.359 954.327,714.124 954.327,717.898C954.327,725.173 956.468,728.811 960.751,728.811C962.363,728.811 963.582,728.434 964.405,727.679L964.405,721.22L960.167,721.22L960.167,718.584L967.141,718.584L967.141,729.126L967.14,729.126Z" style="fill-rule:nonzero;"/>
            <path id="path73" d="M989.397,730.983L985.976,730.983L979.069,719.086L976.033,719.086L976.033,730.983L973.297,730.983L973.297,704.795L979.954,704.795C982.189,704.795 983.955,705.399 985.251,706.605C986.547,707.811 987.195,709.491 987.195,711.644C987.195,713.241 986.722,714.66 985.777,715.904C984.832,717.147 983.53,717.992 981.873,718.437L989.397,730.983ZM976.033,716.432L979.486,716.432C980.932,716.432 982.106,715.995 983.007,715.123C983.908,714.25 984.359,713.152 984.359,711.828C984.359,708.908 982.757,707.448 979.554,707.448L976.033,707.448L976.033,716.432Z" style="fill-rule:nonzero;"/>
            <path id="path75" d="M1000.53,704.293C1003.16,704.293 1005.17,705.453 1006.56,707.772C1007.94,710.092 1008.63,713.467 1008.63,717.897C1008.63,722.302 1007.95,725.668 1006.57,727.994C1005.19,730.32 1003.17,731.483 1000.53,731.483C997.901,731.483 995.896,730.323 994.511,728.004C993.126,725.684 992.433,722.315 992.433,717.898C992.433,713.481 993.123,710.109 994.502,707.783C995.882,705.456 997.89,704.293 1000.53,704.293ZM1000.53,728.811C1004,728.811 1005.73,725.173 1005.73,717.898C1005.73,710.61 1004,706.966 1000.53,706.966C998.835,706.966 997.548,707.909 996.663,709.796C995.779,711.683 995.337,714.384 995.337,717.898C995.337,721.45 995.776,724.156 996.655,726.018C997.534,727.88 998.824,728.811 1000.53,728.811Z" style="fill-rule:nonzero;"/>
            <path id="path77" d="M1027.84,722.742C1027.84,725.774 1027.29,727.989 1026.18,729.388C1025.07,730.785 1023.39,731.485 1021.13,731.485C1016.58,731.485 1014.31,728.596 1014.31,722.817L1014.31,704.796L1017.04,704.796L1017.04,722.539C1017.04,726.722 1018.41,728.812 1021.13,728.812C1022.5,728.812 1023.5,728.318 1024.14,727.328C1024.78,726.338 1025.1,724.729 1025.1,722.502L1025.1,704.796L1027.84,704.796L1027.84,722.742L1027.84,722.742Z" style="fill-rule:nonzero;"/>
            <path id="path79" d="M1035.6,704.794L1041.57,704.794C1043.83,704.794 1045.64,705.425 1046.99,706.688C1048.35,707.95 1049.03,709.688 1049.03,711.903C1049.03,714.131 1048.35,715.909 1047,717.239C1045.65,718.569 1043.88,719.234 1041.69,719.234L1038.33,719.234L1038.33,730.983L1035.6,730.983L1035.6,704.794L1035.6,704.794ZM1038.33,716.58L1041.3,716.58C1044.52,716.58 1046.12,715.083 1046.12,712.088C1046.12,710.702 1045.69,709.582 1044.82,708.729C1043.94,707.875 1042.82,707.449 1041.44,707.449L1038.33,707.449L1038.33,716.58Z" style="fill-rule:nonzero;"/>
        </g>
        <rect id="rect81" x="439.459" y="577.993" width="10.617" height="106.853"/>
        <path id="polygon83" d="M483.661,684.845L494.278,684.845L461.938,631.419L494.278,577.992L483.661,577.992L451.321,631.419L483.661,684.845Z" style="fill-rule:nonzero;"/>
        <path id="polygon85" d="M995.278,577.934L995.293,577.971L995.278,577.971L995.278,684.823L1005.89,684.823L1005.89,604.437L1038.1,684.823L1048.71,684.823L1048.71,577.971L1038.1,577.971L1038.1,658.32L1005.89,577.934L995.278,577.934Z" style="fill-rule:nonzero;"/>
        <path id="polygon87" d="M241.903,577.949L231.286,577.949L231.286,684.802L241.903,684.802L241.903,635.145L275.488,635.145L275.488,684.802L286.105,684.802L286.105,577.949L275.488,577.949L275.488,627.527L241.903,627.527L241.903,577.949Z" style="fill-rule:nonzero;"/>
        <path id="polygon89" d="M370.068,684.845L424.887,684.845L424.887,658.052L414.27,658.052L414.27,677.227L380.685,677.227L380.685,585.531L414.27,585.531L414.27,604.521L424.887,604.521L424.887,577.913L370.068,577.913L370.068,684.845Z" style="fill-rule:nonzero;"/>
        <path id="path91" d="M355.496,577.992L300.677,577.992L300.677,684.845L311.294,684.845L311.294,634.688L344.879,634.688L344.879,684.845L355.496,684.845L355.496,577.992ZM344.879,628.112L311.294,628.112L311.294,585.611L344.879,585.611L344.879,628.112Z" style="fill-rule:nonzero;"/>
        <path id="path93" d="M771.842,577.992L717.023,577.992L717.023,684.845L727.64,684.845L727.64,634.688L761.225,634.688L761.225,684.845L771.842,684.845L771.842,577.992ZM761.225,628.112L727.64,628.112L727.64,585.611L761.225,585.611L761.225,628.112Z" style="fill-rule:nonzero;"/>
        <path id="polygon95" d="M877.906,585.611L877.906,684.845L888.523,684.845L888.523,585.611L910.624,585.611L910.624,577.992L855.805,577.992L855.805,585.611L877.906,585.611Z" style="fill-rule:nonzero;"/>
        <path id="polygon97" d="M647.632,684.845L702.451,684.845L702.451,627.61L667.682,627.61L667.682,635.228L691.834,635.228L691.834,677.227L658.249,677.227L658.249,585.611L691.834,585.611L691.834,604.6L702.451,604.6L702.451,577.992L647.632,577.992L647.632,684.845Z" style="fill-rule:nonzero;"/>
        <path id="path99" d="M633.06,577.992L578.241,577.992L578.241,684.845L588.858,684.845L588.858,635.228L599.405,635.228L622.443,684.845L633.06,684.845L610.022,635.228L633.06,635.228L633.06,577.992ZM622.443,627.61L588.858,627.61L588.858,585.611L622.443,585.611L622.443,627.61Z" style="fill-rule:nonzero;"/>
        <path id="path101" d="M841.233,577.992L786.414,577.992L786.414,684.845L797.031,684.845L797.031,635.228L807.578,635.228L830.616,684.845L841.233,684.845L818.195,635.228L841.233,635.228L841.233,577.992ZM830.616,627.61L797.031,627.61L797.031,585.611L830.616,585.611L830.616,627.61Z" style="fill-rule:nonzero;"/>
        <path id="polygon103" d="M563.669,677.227L519.467,677.227L519.467,635.228L549.964,635.228L549.964,627.61L519.467,627.61L519.467,585.611L563.669,585.611L563.669,577.992L508.85,577.992L508.85,684.845L563.669,684.844L563.669,677.227Z" style="fill-rule:nonzero;"/>
        <path id="polygon105" d="M980.015,677.227L935.813,677.227L935.813,635.228L966.31,635.228L966.31,627.61L935.813,627.61L935.813,585.611L980.015,585.611L980.015,577.992L925.196,577.992L925.196,684.845L980.015,684.844L980.015,677.227Z" style="fill-rule:nonzero;"/>
        <path id="polygon107" d="M1059.11,709.966L1074.59,709.966L1074.59,552.75L1059.11,552.75L1059.11,540.72L1084.68,540.72L1084.68,722.037L1059.11,722.037L1059.11,709.966Z" style="fill:rgb(224,48,48);fill-rule:nonzero;"/>
        <path id="polygon109" d="M220.889,709.966L205.409,709.966L205.409,552.75L220.889,552.75L220.889,540.72L195.318,540.72L195.318,722.037L220.889,722.037L220.889,709.966Z" style="fill:rgb(0,163,87);fill-rule:nonzero;"/>
    </g>
</svg>
