<?xml version="1.0" encoding="UTF-8" standalone="no"?>
<!DOCTYPE svg PUBLIC "-//W3C//DTD SVG 1.1//EN" "http://www.w3.org/Graphics/SVG/1.1/DTD/svg11.dtd">
<svg width="100%" height="100%" viewBox="0 0 525 605" version="1.1" xmlns="http://www.w3.org/2000/svg" xmlns:xlink="http://www.w3.org/1999/xlink" xml:space="preserve" xmlns:serif="http://www.serif.com/" style="fill-rule:evenodd;clip-rule:evenodd;stroke-linejoin:round;stroke-miterlimit:2;">
    <g id="g5" transform="matrix(1,0,0,1,-377.832,-337.692)">
        <path id="polygon7" d="M621.694,608.572L495.314,608.572L495.314,421.035L458.702,421.035L458.702,836.221L495.314,836.221L495.314,639.836L621.694,639.836L621.694,836.221L821.298,836.221L821.298,608.572L700.432,608.572L700.432,639.836L784.618,639.836L784.618,805.029L658.306,805.029L658.306,448.195L784.618,448.195L784.618,522.261L821.298,522.261L821.298,421.035L621.694,421.035L621.694,608.572Z" style="fill-rule:nonzero;"/>
        <g id="g9">
            <path id="polygon11" d="M443.594,888.614L403.784,888.614L403.784,368.631L443.594,368.631L443.594,337.692L377.832,337.692L377.832,919.659L443.594,919.659L443.594,888.614Z" style="fill:rgb(0,163,87);fill-rule:nonzero;"/>
            <path id="polygon13" d="M836.406,888.614L876.216,888.614L876.216,368.631L836.406,368.631L836.406,337.692L902.169,337.692L902.169,919.659L836.406,919.659L836.406,888.614Z" style="fill:rgb(224,48,48);fill-rule:nonzero;"/>
        </g>
        <g id="g15">
            <g id="g17">
                <rect id="rect19" x="551.044" y="866.793" width="4.71" height="75.515"/>
                <path id="polygon21" d="M570.651,942.308L575.36,942.308L561.015,904.551L575.36,866.793L570.651,866.793L556.306,904.551L570.651,942.308Z" style="fill-rule:nonzero;"/>
            </g>
            <path id="polygon23" d="M797.595,866.752L797.601,866.778L797.595,866.778L797.595,942.293L802.304,942.293L802.304,885.482L816.589,942.293L821.298,942.293L821.298,866.778L816.589,866.778L816.589,923.562L802.304,866.752L797.595,866.752Z" style="fill-rule:nonzero;"/>
            <path id="polygon25" d="M463.412,866.763L458.702,866.763L458.702,942.277L463.412,942.277L463.412,907.184L478.309,907.184L478.309,942.277L483.019,942.277L483.019,866.763L478.309,866.763L478.309,901.8L463.412,901.8L463.412,866.763Z" style="fill-rule:nonzero;"/>
            <path id="polygon27" d="M520.263,942.308L544.58,942.308L544.58,923.373L539.87,923.373L539.87,936.924L524.973,936.924L524.973,872.12L539.87,872.12L539.87,885.541L544.58,885.541L544.58,866.737L520.263,866.737L520.263,942.308Z" style="fill-rule:nonzero;"/>
            <path id="path29" d="M513.799,866.793L489.482,866.793L489.482,942.308L494.192,942.308L494.192,906.861L509.09,906.861L509.09,942.308L513.799,942.308L513.799,866.793ZM509.09,902.213L494.192,902.213L494.192,872.177L509.09,872.177L509.09,902.213Z" style="fill-rule:nonzero;"/>
            <path id="path31" d="M698.483,866.793L674.166,866.793L674.166,942.308L678.876,942.308L678.876,906.861L693.774,906.861L693.774,942.308L698.483,942.308L698.483,866.793ZM693.773,902.213L678.875,902.213L678.875,872.177L693.773,872.177L693.773,902.213Z" style="fill-rule:nonzero;"/>
            <path id="polygon33" d="M745.531,872.177L745.531,942.308L750.24,942.308L750.24,872.177L760.044,872.177L760.044,866.793L735.727,866.793L735.727,872.177L745.531,872.177Z" style="fill-rule:nonzero;"/>
            <path id="polygon35" d="M643.385,942.308L667.702,942.308L667.702,901.859L652.279,901.859L652.279,907.242L662.992,907.242L662.992,936.924L648.095,936.924L648.095,872.177L662.992,872.177L662.992,885.597L667.702,885.597L667.702,866.793L643.385,866.793L643.385,942.308Z" style="fill-rule:nonzero;"/>
            <path id="path37" d="M636.922,866.793L612.605,866.793L612.605,942.308L617.315,942.308L617.315,907.242L621.993,907.242L632.212,942.308L636.922,942.308L626.703,907.242L636.922,907.242L636.922,866.793ZM632.212,901.859L617.314,901.859L617.314,872.177L632.212,872.177L632.212,901.859Z" style="fill-rule:nonzero;"/>
            <path id="path39" d="M729.263,866.793L704.946,866.793L704.946,942.308L709.656,942.308L709.656,907.242L714.334,907.242L724.553,942.308L729.263,942.308L719.044,907.242L729.263,907.242L729.263,866.793ZM724.554,901.859L709.656,901.859L709.656,872.177L724.554,872.177L724.554,901.859Z" style="fill-rule:nonzero;"/>
            <path id="polygon41" d="M606.141,936.924L586.534,936.924L586.534,907.242L600.062,907.242L600.062,901.859L586.534,901.859L586.534,872.177L606.141,872.177L606.141,866.793L581.824,866.793L581.824,942.308L606.141,942.307L606.141,936.924Z" style="fill-rule:nonzero;"/>
            <path id="polygon43" d="M790.824,936.924L771.217,936.924L771.217,907.242L784.745,907.242L784.745,901.859L771.217,901.859L771.217,872.177L790.824,872.177L790.824,866.793L766.508,866.793L766.507,942.308L790.824,942.307L790.824,936.924Z" style="fill-rule:nonzero;"/>
        </g>
    </g>
</svg>
