<?xml version="1.0" encoding="UTF-8"?>
<svg width="150px" height="118px" viewBox="0 0 150 118" version="1.1" xmlns="http://www.w3.org/2000/svg" xmlns:xlink="http://www.w3.org/1999/xlink">
    <title>logo-qraftman</title>
    <g id="Page-1" stroke="none" stroke-width="1" fill="none" fill-rule="evenodd">
        <g id="logo-qraftman" fill-rule="nonzero">
            <polygon id="Path" fill="#FFCD05" points="7.21594959 29.3129843 27.3219583 5.52735384 122.03992 5.52735384 142.73576 29.2714252 74.9568837 109.456152"></polygon>
            <g id="Group">
                <path d="M0.831282912,29.3129843 L25.0661117,0.637238788 L124.247476,0.637238788 L149.165268,29.2229397 L113.744337,71.1317798 C114.313473,71.2010448 114.882609,71.2356774 115.448295,71.2356774 C121.108607,71.2356774 126.106653,67.7585701 128.552211,64.3091688 L130.359648,61.7602137 L129.690482,64.8148039 C126.061812,81.3795492 115.775979,83.855776 109.967347,83.855776 C107.91156,83.855776 105.814381,83.5579361 103.734449,82.9726462 L74.960333,117.016436 L0.831282912,29.3129843 Z M74.960333,101.899331 L93.3796307,80.1085349 C87.9090303,82.65749 81.5933497,83.9908429 74.9327385,83.9908429 C68.2721273,83.9908429 62.0116357,82.6609533 56.5548325,80.1223879 L74.960333,101.895868 L74.960333,101.899331 Z M74.9465357,23.5328129 C68.6377538,23.5328129 63.2499368,25.7111998 59.3591188,29.8359357 C55.582128,33.8429209 53.4987468,39.5399742 53.4987468,45.8811928 C53.4987468,52.2224114 55.5786787,57.9229279 59.3591188,61.9299131 C63.2499368,66.054649 68.6377538,68.2330359 74.9465357,68.2330359 C78.1957826,68.2330359 80.1825833,67.3048838 82.2866604,66.3247828 C82.7557661,66.1065978 83.2317704,65.8814863 83.7319199,65.6667645 L70.8142663,53.1851961 L81.4001886,42.3452101 L94.811093,55.0934492 C95.6354773,52.5860531 96.4184699,48.9253933 96.4184699,45.8777295 C96.4184699,39.5399742 94.3316393,33.8394576 90.5443006,29.8324724 C86.646584,25.7077366 81.2518684,23.5293496 74.9465357,23.5293496 L74.9465357,23.5328129 Z M90.6132867,10.4140056 C97.0255479,12.8244306 102.434061,16.779467 106.414561,21.995128 C111.329823,28.4402442 113.9306,36.6862526 113.9306,45.8361705 C113.9306,49.9886124 113.402856,53.9505753 112.357716,57.6493308 L136.309702,29.3129843 L119.832364,10.4105424 L90.616736,10.4105424 L90.6132867,10.4140056 Z M37.497413,57.5800657 C36.462621,53.8916999 35.9383264,49.9574431 35.9383264,45.843097 C35.9383264,36.6897159 38.5391036,28.4471707 43.4543657,22.0020545 C47.4348656,16.7863935 52.8433785,12.8313571 59.2556396,10.4209321 L29.5778049,10.4209321 L13.6040656,29.3164475 L37.497413,57.583529 L37.497413,57.5800657 Z" id="Shape" fill="#CC3333"></path>
                <path d="M123.961184,1.27447758 L126.492975,4.17668467 L143.522202,23.7129021 L148.330536,29.2264029 L143.608435,34.8126321 L112.533631,71.5785396 C113.527031,71.7759451 114.503185,71.8659897 115.455194,71.8659897 C121.515625,71.8659897 126.599903,68.1637708 129.076506,64.6728105 C125.992825,78.7509392 117.773128,83.2116107 109.974245,83.2116107 C107.745993,83.2116107 105.552234,82.847969 103.524042,82.2384363 L81.4243337,108.386006 L74.9672316,116.025945 L68.5101295,108.386006 L6.31223124,34.8160953 L1.66256582,29.3129843 L6.31223124,23.8098732 L22.8240624,4.27711904 L25.3593028,1.27447758 L123.961184,1.27447758 M110.733093,60.5653909 L137.147883,29.3129843 L120.118656,9.77676685 L86.5086118,9.77676685 C102.530641,13.9915473 113.295928,27.1623034 113.295928,45.8396337 C113.295928,51.2492369 112.392209,56.1774478 110.733093,60.5619277 M39.1151379,60.4753463 C37.4698186,56.1012562 36.5729988,51.2007514 36.5729988,45.8361705 C36.5729988,27.1588401 47.338285,13.9880841 63.3568653,9.77330359 L29.2811645,9.77330359 L12.7693334,29.309521 L39.1116886,60.4753463 M74.9430864,68.8702747 C79.5341136,68.8702747 81.7451192,67.0797722 84.8736404,65.8884128 L71.7145354,53.1748063 L81.4139858,43.242193 L95.0835882,56.2363231 C96.1218295,53.4795727 97.0531423,49.1816741 97.0531423,45.8811928 C97.0531423,32.5719066 88.2953526,22.8921108 74.9465357,22.8921108 C61.5977189,22.8921108 52.8640743,32.5719066 52.8640743,45.8811928 C52.8640743,59.190479 61.5908202,68.8702747 74.9465357,68.8702747 M95.7010141,78.2245245 C95.7010141,78.2245245 95.6872169,78.2106715 95.6768689,78.2002818 C89.7923517,81.5423221 82.7316209,83.3501409 74.9292892,83.3501409 C67.1269575,83.3501409 59.8972107,81.4869101 53.985099,78.0686781 L74.9568837,102.879432 L95.7493044,78.2799366 C95.7320579,78.2626203 95.7148113,78.2418408 95.6975648,78.2245245 C95.7182606,78.2453041 95.7320579,78.2591571 95.7493044,78.2764734 L95.8217398,78.1933552 C95.6596224,78.0686781 95.5768391,78.0167293 95.5526939,78.0167293 C95.5216501,78.0167293 95.587187,78.1033106 95.6975648,78.2245245 M124.537218,0 L24.7729206,0 L24.3934969,0.450223057 L21.8582565,3.45286452 L5.34642537,22.9856187 L0.696759951,28.4887297 L2.91041978e-15,29.3129843 L0.696759951,30.1372388 L5.34642537,35.6403498 L67.5339757,109.213724 L73.9910778,116.853663 L74.960333,118 L75.9295882,116.853663 L82.3866903,109.213724 L103.958654,83.6930031 C105.966151,84.222881 107.983995,84.4930148 109.967347,84.4930148 C114.572171,84.4930148 118.769977,83.010742 122.102007,80.205506 C126.061812,76.8738554 128.821257,71.7413125 130.307908,64.9533341 L131.646239,58.8441536 L128.031366,63.9420639 C125.682388,67.2563982 120.877504,70.6019019 115.444846,70.6019019 C115.306873,70.6019019 115.168901,70.6019019 115.030929,70.5949753 L144.570791,35.6472764 L149.292892,30.0610472 L150,29.2229397 L149.279095,28.3952219 L144.470761,22.8817211 L127.441534,3.34550364 L124.909743,0.443296548 L124.530319,0.00692650857 L124.530319,0.00692650857 L124.537218,0 Z M93.7556051,11.0547077 L119.542622,11.0547077 L135.47152,29.3268373 L113.623612,55.173104 C114.251385,52.1947053 114.568722,49.0743132 114.568722,45.8396337 C114.568722,36.5477225 111.923103,28.1666471 106.921609,21.6107067 C103.489549,17.1119394 99.0123485,13.5343977 93.7590544,11.0547077 L93.7590544,11.0547077 L93.7556051,11.0547077 Z M29.8709959,11.0547077 L56.1098719,11.0547077 C50.8565778,13.5343977 46.3793777,17.1119394 42.9473176,21.6107067 C37.9458229,28.1701104 35.3002047,36.5477225 35.3002047,45.8396337 C35.3002047,49.0431439 35.6140916,52.1427565 36.2349668,55.1003757 L14.4387978,29.3129843 L29.8709959,11.0547077 L29.8709959,11.0547077 Z M74.9465357,67.5992604 C68.8171178,67.5992604 63.5879688,65.4866753 59.8213259,61.4935431 C56.1547129,57.6043085 54.1368685,52.0631017 54.1368685,45.884656 C54.1368685,39.7062104 56.1547129,34.1650035 59.8213259,30.275769 C63.5879688,26.2826368 68.8171178,24.1700517 74.9465357,24.1700517 C81.0759537,24.1700517 86.308552,26.2826368 90.0855428,30.275769 C93.7590544,34.1650035 95.7837975,39.7096736 95.7837975,45.8811928 C95.7837975,48.3885889 95.2043139,51.4985912 94.5041047,53.9263325 L82.2901097,42.3140409 L81.382942,41.4516905 L80.5102674,42.3452101 L70.810817,52.2778234 L69.9139973,53.1955858 L70.8384115,54.0891054 L82.6143445,65.4658958 C82.4142847,65.5594036 82.2176742,65.6494482 82.0210638,65.7394928 C79.9825235,66.6918878 78.0578104,67.5888706 74.9499851,67.5888706 L74.9499851,67.5888706 L74.9465357,67.5992604 Z M74.9327385,84.631545 C80.7034286,84.631545 86.21887,83.6410542 91.1686251,81.7397276 L74.960333,100.915767 L58.7623888,81.7535807 C63.6948973,83.6479807 69.1861936,84.631545 74.9327385,84.631545 L74.9327385,84.631545 L74.9327385,84.631545 Z" id="Shape" fill="#231F20"></path>
            </g>
        </g>
    </g>
</svg>