<?xml version="1.0" encoding="utf-8"?>
<!-- Generator: Adobe Illustrator 17.0.0, SVG Export Plug-In . SVG Version: 6.00 Build 0)  -->
<!DOCTYPE svg PUBLIC "-//W3C//DTD SVG 1.1//EN" "http://www.w3.org/Graphics/SVG/1.1/DTD/svg11.dtd">
<svg version="1.1" id="Capa_1" xmlns="http://www.w3.org/2000/svg" xmlns:xlink="http://www.w3.org/1999/xlink" x="0px" y="0px"
	 width="1280px" height="1280px" viewBox="0 0 1280 1280" enable-background="new 0 0 1280 1280" xml:space="preserve">
<g>
	<g>
		<path d="M251.237,730.983h-2.87l-2.603-9.169h-7.725l-2.636,9.169h-2.836l7.692-26.188h3.287L251.237,730.983z M244.98,719.159
			l-3.087-10.839l-3.07,10.839H244.98z"/>
		<path d="M290.496,729.349c-1.847,1.424-3.988,2.135-6.424,2.135c-3.048,0-5.364-1.163-6.949-3.489
			c-1.585-2.326-2.378-5.691-2.378-10.097c0-4.257,0.768-7.588,2.303-9.995c1.535-2.406,3.876-3.609,7.024-3.609
			c1.135,0,2.258,0.161,3.371,0.482c1.112,0.322,2.007,0.749,2.686,1.28l-0.901,2.395c-1.568-0.989-3.287-1.484-5.156-1.484
			c-2.169,0-3.782,0.875-4.838,2.626s-1.585,4.52-1.585,8.306c0,7.275,2.141,10.913,6.423,10.913c1.813,0,3.671-0.618,5.573-1.855
			L290.496,729.349z"/>
		<path d="M303.343,704.293c2.636,0,4.646,1.16,6.031,3.479c1.385,2.32,2.077,5.695,2.077,10.125c0,4.405-0.689,7.771-2.069,10.097
			s-3.393,3.489-6.04,3.489c-2.625,0-4.63-1.16-6.015-3.479c-1.385-2.32-2.078-5.689-2.078-10.106s0.69-7.789,2.069-10.115
			C298.699,705.456,300.707,704.293,303.343,704.293z M303.343,728.811c3.47,0,5.206-3.638,5.206-10.913
			c0-7.288-1.735-10.932-5.206-10.932c-1.691,0-2.979,0.943-3.863,2.83s-1.326,4.588-1.326,8.102c0,3.552,0.439,6.258,1.318,8.12
			C300.351,727.88,301.641,728.811,303.343,728.811z"/>
		<path d="M331.473,730.983h-2.636v-22.458l-3.554,10.746h-2.586l-3.554-10.746v22.458h-2.636v-26.188h3.554l3.938,11.935
			l3.921-11.935h3.554V730.983z"/>
		<path d="M338.414,704.794h5.973c2.258,0,4.065,0.631,5.422,1.894c1.357,1.262,2.036,3,2.036,5.215
			c0,2.228-0.676,4.006-2.027,5.336c-1.351,1.33-3.123,1.995-5.314,1.995h-3.354v11.749h-2.736V704.794z M341.15,716.58h2.97
			c3.214,0,4.822-1.497,4.822-4.492c0-1.386-0.437-2.506-1.31-3.359s-2-1.28-3.378-1.28h-3.104V716.58z"/>
		<path d="M371.666,722.742c0,3.032-0.553,5.247-1.66,6.646c-1.107,1.397-2.789,2.097-5.047,2.097c-4.549,0-6.824-2.889-6.824-8.668
			v-18.021h2.736v17.743c0,4.183,1.362,6.273,4.088,6.273c1.368,0,2.372-0.494,3.011-1.484s0.959-2.599,0.959-4.826v-17.706h2.736
			V722.742z"/>
		<path d="M394.057,707.263h-7.258v23.72h-2.719v-23.72h-7.292v-2.469h17.269V707.263z"/>
		<path d="M412.227,730.983H399.93v-26.188h12.197v2.654h-9.46v8.11h9.093v2.654h-9.093v10.115h9.561V730.983z"/>
		<path d="M435.752,730.983h-3.42l-6.907-11.897h-3.037v11.897h-2.736v-26.188h6.657c2.236,0,4.001,0.604,5.297,1.81
			s1.944,2.886,1.944,5.039c0,1.597-0.473,3.016-1.418,4.26c-0.945,1.243-2.247,2.088-3.904,2.533L435.752,730.983z
			 M422.388,716.432h3.454c1.446,0,2.62-0.437,3.521-1.309c0.901-0.873,1.352-1.971,1.352-3.295c0-2.92-1.602-4.38-4.805-4.38
			h-3.521V716.432z"/>
		<path d="M461.446,704.794h5.973c2.258,0,4.065,0.631,5.422,1.894c1.357,1.262,2.036,3,2.036,5.215
			c0,2.228-0.676,4.006-2.027,5.336c-1.351,1.33-3.123,1.995-5.314,1.995h-3.354v11.749h-2.736V704.794z M464.183,716.58h2.97
			c3.214,0,4.822-1.497,4.822-4.492c0-1.386-0.437-2.506-1.31-3.359s-2-1.28-3.378-1.28h-3.104V716.58z"/>
		<path d="M497.268,730.983h-3.42l-6.907-11.897h-3.037v11.897h-2.736v-26.188h6.657c2.236,0,4.001,0.604,5.297,1.81
			s1.944,2.886,1.944,5.039c0,1.597-0.473,3.016-1.418,4.26c-0.945,1.243-2.247,2.088-3.904,2.533L497.268,730.983z
			 M483.904,716.432h3.454c1.446,0,2.62-0.437,3.521-1.309c0.901-0.873,1.352-1.971,1.352-3.295c0-2.92-1.602-4.38-4.805-4.38
			h-3.521V716.432z"/>
		<path d="M508.397,704.293c2.636,0,4.647,1.16,6.031,3.479c1.385,2.32,2.077,5.695,2.077,10.125c0,4.405-0.689,7.771-2.069,10.097
			s-3.393,3.489-6.04,3.489c-2.625,0-4.63-1.16-6.015-3.479c-1.385-2.32-2.078-5.689-2.078-10.106s0.69-7.789,2.069-10.115
			C503.753,705.456,505.761,704.293,508.397,704.293z M508.397,728.811c3.47,0,5.206-3.638,5.206-10.913
			c0-7.288-1.735-10.932-5.206-10.932c-1.691,0-2.979,0.943-3.863,2.83s-1.326,4.588-1.326,8.102c0,3.552,0.439,6.258,1.318,8.12
			C505.405,727.88,506.695,728.811,508.397,728.811z"/>
		<path d="M536.527,729.126c-1.924,1.572-4.054,2.357-6.39,2.357c-3.059,0-5.378-1.153-6.958-3.461
			c-1.579-2.308-2.369-5.683-2.369-10.125c0-4.294,0.765-7.635,2.294-10.022c1.529-2.388,3.873-3.582,7.032-3.582
			c1.135,0,2.258,0.161,3.371,0.482c1.112,0.322,2.007,0.749,2.686,1.28l-0.901,2.395c-1.568-0.989-3.287-1.484-5.156-1.484
			c-2.158,0-3.768,0.878-4.83,2.635c-1.062,1.758-1.593,4.523-1.593,8.297c0,7.275,2.141,10.913,6.423,10.913
			c1.613,0,2.831-0.377,3.654-1.132v-6.459h-4.238v-2.636h6.974V729.126z"/>
		<path d="M558.784,730.983h-3.42l-6.907-11.897h-3.037v11.897h-2.736v-26.188h6.657c2.236,0,4.001,0.604,5.297,1.81
			s1.944,2.886,1.944,5.039c0,1.597-0.473,3.016-1.418,4.26c-0.945,1.243-2.247,2.088-3.904,2.533L558.784,730.983z M545.42,716.432
			h3.454c1.446,0,2.62-0.437,3.521-1.309c0.901-0.873,1.352-1.971,1.352-3.295c0-2.92-1.602-4.38-4.805-4.38h-3.521V716.432z"/>
		<path d="M579.323,730.983h-2.87l-2.603-9.169h-7.725l-2.636,9.169h-2.836l7.692-26.188h3.287L579.323,730.983z M573.066,719.159
			l-3.087-10.839l-3.07,10.839H573.066z"/>
		<path d="M598.043,730.983h-2.636v-22.458l-3.554,10.746h-2.586l-3.554-10.746v22.458h-2.636v-26.188h3.554l3.938,11.935
			l3.921-11.935h3.554V730.983z"/>
		<path d="M618.548,730.983h-2.636v-22.458l-3.554,10.746h-2.586l-3.554-10.746v22.458h-2.636v-26.188h3.554l3.938,11.935
			l3.921-11.935h3.554V730.983z"/>
		<path d="M636.701,730.983h-10.694v-2.654h4.054v-20.88h-4.054v-2.654h10.694v2.654h-3.904v20.88h3.904V730.983z"/>
		<path d="M659.076,730.983h-3.037l-8.442-20.676v20.676h-2.736v-26.188h3.053l8.476,20.49v-20.49h2.687V730.983z"/>
		<path d="M680.064,729.126c-1.924,1.572-4.054,2.357-6.39,2.357c-3.059,0-5.378-1.153-6.958-3.461
			c-1.579-2.308-2.369-5.683-2.369-10.125c0-4.294,0.765-7.635,2.294-10.022c1.529-2.388,3.873-3.582,7.032-3.582
			c1.135,0,2.258,0.161,3.371,0.482c1.112,0.322,2.007,0.749,2.686,1.28l-0.901,2.395c-1.568-0.989-3.287-1.484-5.156-1.484
			c-2.158,0-3.768,0.878-4.83,2.635c-1.062,1.758-1.593,4.523-1.593,8.297c0,7.275,2.141,10.913,6.423,10.913
			c1.613,0,2.831-0.377,3.654-1.132v-6.459h-4.238v-2.636h6.974V729.126z"/>
		<path d="M721.109,729.349c-1.847,1.424-3.988,2.135-6.424,2.135c-3.048,0-5.364-1.163-6.949-3.489
			c-1.585-2.326-2.378-5.691-2.378-10.097c0-4.257,0.768-7.588,2.303-9.995c1.535-2.406,3.876-3.609,7.024-3.609
			c1.135,0,2.258,0.161,3.371,0.482c1.112,0.322,2.007,0.749,2.686,1.28l-0.901,2.395c-1.568-0.989-3.287-1.484-5.156-1.484
			c-2.169,0-3.782,0.875-4.838,2.626s-1.585,4.52-1.585,8.306c0,7.275,2.141,10.913,6.423,10.913c1.813,0,3.671-0.618,5.573-1.855
			L721.109,729.349z"/>
		<path d="M733.956,704.293c2.636,0,4.646,1.16,6.031,3.479c1.385,2.32,2.077,5.695,2.077,10.125c0,4.405-0.689,7.771-2.069,10.097
			s-3.393,3.489-6.04,3.489c-2.625,0-4.63-1.16-6.015-3.479c-1.385-2.32-2.078-5.689-2.078-10.106s0.69-7.789,2.069-10.115
			C729.312,705.456,731.32,704.293,733.956,704.293z M733.956,728.811c3.47,0,5.206-3.638,5.206-10.913
			c0-7.288-1.735-10.932-5.206-10.932c-1.691,0-2.979,0.943-3.863,2.83s-1.326,4.588-1.326,8.102c0,3.552,0.439,6.258,1.318,8.12
			C730.964,727.88,732.254,728.811,733.956,728.811z"/>
		<path d="M761.602,730.983h-3.037l-8.442-20.676v20.676h-2.736v-26.188h3.053l8.476,20.49v-20.49h2.687V730.983z"/>
		<path d="M783.659,707.263h-7.258v23.72h-2.719v-23.72h-7.292v-2.469h17.269V707.263z"/>
		<path d="M804.849,730.983h-3.42l-6.907-11.897h-3.037v11.897h-2.736v-26.188h6.657c2.236,0,4.001,0.604,5.297,1.81
			s1.944,2.886,1.944,5.039c0,1.597-0.473,3.016-1.418,4.26c-0.945,1.243-2.247,2.088-3.904,2.533L804.849,730.983z
			 M791.484,716.432h3.454c1.446,0,2.62-0.437,3.521-1.309c0.901-0.873,1.352-1.971,1.352-3.295c0-2.92-1.602-4.38-4.805-4.38
			h-3.521V716.432z"/>
		<path d="M821.249,730.983h-10.694v-2.654h4.054v-20.88h-4.054v-2.654h10.694v2.654h-3.904v20.88h3.904V730.983z"/>
		<path d="M839.352,716.617c1.568,0.408,2.797,1.2,3.688,2.375c0.89,1.176,1.334,2.574,1.334,4.195c0,2.375-0.776,4.269-2.328,5.679
			c-1.551,1.411-3.417,2.116-5.598,2.116h-6.69v-26.188h6.524c2.269,0,4.043,0.554,5.322,1.661c1.279,1.107,1.919,2.67,1.919,4.687
			c0,1.237-0.37,2.339-1.11,3.304s-1.76,1.664-3.062,2.098V716.617z M832.495,715.206h3.204c3.348,0,5.022-1.33,5.022-3.99
			c0-1.213-0.412-2.144-1.235-2.793c-0.823-0.65-2.03-0.975-3.621-0.975h-3.37V715.206z M832.495,728.328h3.104
			c1.813,0,3.25-0.457,4.313-1.373c1.062-0.916,1.593-2.172,1.593-3.768c0-1.695-0.523-3.007-1.568-3.936
			c-1.046-0.928-2.559-1.392-4.538-1.392h-2.903V728.328z"/>
		<path d="M863.795,722.742c0,3.032-0.553,5.247-1.66,6.646c-1.107,1.397-2.789,2.097-5.047,2.097c-4.549,0-6.824-2.889-6.824-8.668
			v-18.021H853v17.743c0,4.183,1.362,6.273,4.088,6.273c1.368,0,2.372-0.494,3.011-1.484s0.959-2.599,0.959-4.826v-17.706h2.736
			V722.742z"/>
		<path d="M886.186,707.263h-7.258v23.72h-2.719v-23.72h-7.292v-2.469h17.269V707.263z"/>
		<path d="M897.999,704.293c2.636,0,4.646,1.16,6.031,3.479c1.385,2.32,2.077,5.695,2.077,10.125c0,4.405-0.689,7.771-2.069,10.097
			s-3.393,3.489-6.04,3.489c-2.625,0-4.63-1.16-6.015-3.479c-1.385-2.32-2.078-5.689-2.078-10.106s0.69-7.789,2.069-10.115
			C893.355,705.456,895.363,704.293,897.999,704.293z M897.999,728.811c3.47,0,5.206-3.638,5.206-10.913
			c0-7.288-1.735-10.932-5.206-10.932c-1.691,0-2.979,0.943-3.863,2.83s-1.326,4.588-1.326,8.102c0,3.552,0.439,6.258,1.318,8.12
			C895.007,727.88,896.297,728.811,897.999,728.811z"/>
		<path d="M927.881,730.983h-3.42l-6.907-11.897h-3.037v11.897h-2.736v-26.188h6.657c2.236,0,4.001,0.604,5.297,1.81
			s1.944,2.886,1.944,5.039c0,1.597-0.473,3.016-1.418,4.26c-0.945,1.243-2.247,2.088-3.904,2.533L927.881,730.983z
			 M914.517,716.432h3.454c1.446,0,2.62-0.437,3.521-1.309c0.901-0.873,1.352-1.971,1.352-3.295c0-2.92-1.602-4.38-4.805-4.38
			h-3.521V716.432z"/>
		<path d="M967.14,729.126c-1.924,1.572-4.054,2.357-6.39,2.357c-3.059,0-5.378-1.153-6.958-3.461
			c-1.579-2.308-2.369-5.683-2.369-10.125c0-4.294,0.765-7.635,2.294-10.022c1.529-2.388,3.873-3.582,7.032-3.582
			c1.135,0,2.258,0.161,3.371,0.482c1.112,0.322,2.007,0.749,2.686,1.28l-0.901,2.395c-1.568-0.989-3.287-1.484-5.156-1.484
			c-2.158,0-3.768,0.878-4.83,2.635c-1.062,1.758-1.593,4.523-1.593,8.297c0,7.275,2.141,10.913,6.423,10.913
			c1.613,0,2.831-0.377,3.654-1.132v-6.459h-4.238v-2.636h6.974V729.126z"/>
		<path d="M989.397,730.983h-3.42l-6.907-11.897h-3.037v11.897h-2.736v-26.188h6.657c2.236,0,4.001,0.604,5.297,1.81
			s1.944,2.886,1.944,5.039c0,1.597-0.473,3.016-1.418,4.26c-0.945,1.243-2.247,2.088-3.904,2.533L989.397,730.983z
			 M976.033,716.432h3.454c1.446,0,2.62-0.437,3.521-1.309c0.901-0.873,1.352-1.971,1.352-3.295c0-2.92-1.602-4.38-4.805-4.38
			h-3.521V716.432z"/>
		<path d="M1000.526,704.293c2.636,0,4.646,1.16,6.031,3.479c1.385,2.32,2.077,5.695,2.077,10.125c0,4.405-0.689,7.771-2.069,10.097
			s-3.393,3.489-6.04,3.489c-2.625,0-4.63-1.16-6.015-3.479c-1.385-2.32-2.078-5.689-2.078-10.106s0.69-7.789,2.069-10.115
			C995.882,705.456,997.89,704.293,1000.526,704.293z M1000.526,728.811c3.47,0,5.206-3.638,5.206-10.913
			c0-7.288-1.735-10.932-5.206-10.932c-1.691,0-2.979,0.943-3.863,2.83s-1.326,4.588-1.326,8.102c0,3.552,0.439,6.258,1.318,8.12
			C997.534,727.88,998.824,728.811,1000.526,728.811z"/>
		<path d="M1027.838,722.742c0,3.032-0.553,5.247-1.66,6.646c-1.107,1.397-2.789,2.097-5.047,2.097
			c-4.549,0-6.824-2.889-6.824-8.668v-18.021h2.736v17.743c0,4.183,1.362,6.273,4.088,6.273c1.368,0,2.372-0.494,3.011-1.484
			c0.64-0.99,0.959-2.599,0.959-4.826v-17.706h2.736V722.742z"/>
		<path d="M1035.597,704.794h5.973c2.258,0,4.065,0.631,5.422,1.894c1.357,1.262,2.036,3,2.036,5.215
			c0,2.228-0.676,4.006-2.027,5.336c-1.351,1.33-3.123,1.995-5.314,1.995h-3.354v11.749h-2.736V704.794z M1038.333,716.58h2.97
			c3.214,0,4.822-1.497,4.822-4.492c0-1.386-0.437-2.506-1.31-3.359s-2-1.28-3.378-1.28h-3.104V716.58z"/>
	</g>
	<g>
		<rect x="439.459" y="577.992" width="10.617" height="106.853"/>
		<polygon points="494.278,577.992 483.661,577.992 451.321,631.419 483.661,684.845 494.278,684.845 461.938,631.419 		"/>
	</g>
	<polygon points="1038.097,577.971 1038.097,658.32 1005.895,577.934 995.278,577.934 995.293,577.971 995.278,577.971 
		995.278,684.823 1005.895,684.823 1005.895,604.437 1038.097,684.823 1048.714,684.823 1048.714,577.971 	"/>
	<polygon points="275.488,577.949 275.488,627.526 241.903,627.526 241.903,577.949 231.286,577.949 231.286,684.802 
		241.903,684.802 241.903,635.145 275.488,635.145 275.488,684.802 286.105,684.802 286.105,577.949 	"/>
	<polygon points="424.887,604.52 424.887,577.912 370.068,577.912 370.068,684.845 424.887,684.845 424.887,658.052 414.27,658.052 
		414.27,677.227 380.685,677.227 380.685,585.531 414.27,585.531 414.27,604.52 	"/>
	<path d="M355.496,577.992h-54.819l0,106.853h10.617v-50.157h33.585v50.157h10.617L355.496,577.992z M344.879,628.111h-33.585
		v-42.501h33.585V628.111z"/>
	<path d="M771.842,577.992h-54.819l0,106.853h10.617v-50.157h33.585v50.157h10.617L771.842,577.992z M761.225,628.111H727.64
		v-42.501h33.585V628.111z"/>
	<polygon points="910.624,577.992 855.805,577.992 855.805,585.611 877.906,585.611 877.906,684.845 888.523,684.845 
		888.523,585.611 910.624,585.611 	"/>
	<polygon points="702.451,604.6 702.451,577.992 647.632,577.992 647.632,684.845 702.451,684.845 702.451,627.61 667.682,627.61 
		667.682,635.228 691.834,635.228 691.834,677.227 658.249,677.227 658.249,585.611 691.834,585.611 691.834,604.6 	"/>
	<path d="M633.06,577.992h-54.819v106.853h10.617v-49.617h10.547l23.038,49.617h10.617l-23.038-49.617h23.038V577.992z
		 M622.443,627.61h-33.585v-41.999h33.585V627.61z"/>
	<path d="M841.233,577.992h-54.819v106.853h10.617v-49.617h10.547l23.038,49.617h10.617l-23.038-49.617h23.038V577.992z
		 M830.616,627.61h-33.585v-41.999h33.585V627.61z"/>
	<polygon points="508.85,577.992 508.85,684.845 563.669,684.844 563.669,677.227 519.467,677.227 519.467,635.228 549.964,635.228 
		549.964,627.61 519.467,627.61 519.467,585.611 563.669,585.611 563.669,577.992 	"/>
	<polygon points="925.196,577.992 925.196,684.845 980.015,684.844 980.015,677.227 935.813,677.227 935.813,635.228 
		966.31,635.228 966.31,627.61 935.813,627.61 935.813,585.611 980.015,585.611 980.015,577.992 	"/>
	<polygon fill="#E03030" points="1084.682,540.72 1084.682,722.037 1059.111,722.037 1059.111,709.966 1074.591,709.966 
		1074.591,552.75 1059.111,552.75 1059.111,540.72 	"/>
	<polygon fill="#00A357" points="195.318,540.72 195.318,722.037 220.889,722.037 220.889,709.966 205.409,709.966 205.409,552.75 
		220.889,552.75 220.889,540.72 	"/>
</g>
</svg>
