<?xml version="1.0" encoding="UTF-8" standalone="no"?>
<!-- Generator: Adobe Illustrator 17.0.0, SVG Export Plug-In . SVG Version: 6.00 Build 0)  -->

<svg
   xmlns:dc="http://purl.org/dc/elements/1.1/"
   xmlns:cc="http://creativecommons.org/ns#"
   xmlns:rdf="http://www.w3.org/1999/02/22-rdf-syntax-ns#"
   xmlns:svg="http://www.w3.org/2000/svg"
   xmlns="http://www.w3.org/2000/svg"
   xmlns:sodipodi="http://sodipodi.sourceforge.net/DTD/sodipodi-0.dtd"
   xmlns:inkscape="http://www.inkscape.org/namespaces/inkscape"
   version="1.1"
   id="Capa_1"
   x="0px"
   y="0px"
   width="889.36401"
   height="190.765"
   viewBox="0 0 889.36401 190.765"
   enable-background="new 0 0 1280 1280"
   xml:space="preserve"
   inkscape:version="0.48.4 r9939"
   sodipodi:docname="LOGO-04.svg"><metadata
     id="metadata115"><rdf:RDF><cc:Work
         rdf:about=""><dc:format>image/svg+xml</dc:format><dc:type
           rdf:resource="http://purl.org/dc/dcmitype/StillImage" /><dc:title></dc:title></cc:Work></rdf:RDF></metadata><defs
     id="defs113" /><sodipodi:namedview
     pagecolor="#ffffff"
     bordercolor="#666666"
     borderopacity="1"
     objecttolerance="10"
     gridtolerance="10"
     guidetolerance="10"
     inkscape:pageopacity="0"
     inkscape:pageshadow="2"
     inkscape:window-width="1315"
     inkscape:window-height="744"
     id="namedview111"
     showgrid="false"
     fit-margin-top="0"
     fit-margin-left="0"
     fit-margin-right="0"
     fit-margin-bottom="0"
     inkscape:zoom="0.26074563"
     inkscape:cx="389.86086"
     inkscape:cy="-1.1010901"
     inkscape:window-x="45"
     inkscape:window-y="24"
     inkscape:window-maximized="1"
     inkscape:current-layer="Capa_1" /><g
     id="g5"
     transform="translate(-195.318,-540.72)"><g
       id="g7"><path
         d="m 251.237,730.983 h -2.87 l -2.603,-9.169 h -7.725 l -2.637,9.169 h -2.836 l 7.691,-26.188 h 3.287 l 7.693,26.188 z m -6.257,-11.823 -3.087,-10.839 -3.069,10.839 h 6.156 z"
         id="path9"
         inkscape:connector-curvature="0"
         style="fill:#ffffff" /><path
         d="m 290.496,729.349 c -1.847,1.424 -3.987,2.135 -6.424,2.135 -3.048,0 -5.364,-1.163 -6.949,-3.489 -1.585,-2.326 -2.377,-5.691 -2.377,-10.097 0,-4.257 0.768,-7.588 2.302,-9.995 1.535,-2.406 3.876,-3.609 7.024,-3.609 1.135,0 2.258,0.161 3.371,0.482 1.112,0.322 2.007,0.749 2.686,1.28 l -0.901,2.395 c -1.568,-0.989 -3.287,-1.484 -5.156,-1.484 -2.169,0 -3.782,0.875 -4.838,2.626 -1.057,1.751 -1.585,4.52 -1.585,8.306 0,7.275 2.141,10.913 6.423,10.913 1.813,0 3.671,-0.618 5.573,-1.855 l 0.851,2.392 z"
         id="path11"
         inkscape:connector-curvature="0"
         style="fill:#ffffff" /><path
         d="m 303.343,704.293 c 2.636,0 4.647,1.16 6.032,3.479 1.385,2.32 2.077,5.695 2.077,10.125 0,4.405 -0.69,7.771 -2.069,10.097 -1.379,2.326 -3.393,3.489 -6.04,3.489 -2.625,0 -4.63,-1.16 -6.015,-3.479 -1.385,-2.32 -2.078,-5.689 -2.078,-10.106 0,-4.417 0.69,-7.789 2.069,-10.115 1.38,-2.327 3.388,-3.49 6.024,-3.49 z m 0,24.518 c 3.47,0 5.206,-3.638 5.206,-10.913 0,-7.288 -1.735,-10.932 -5.206,-10.932 -1.691,0 -2.978,0.943 -3.863,2.83 -0.884,1.887 -1.326,4.588 -1.326,8.102 0,3.552 0.439,6.258 1.318,8.12 0.879,1.862 2.17,2.793 3.871,2.793 z"
         id="path13"
         inkscape:connector-curvature="0"
         style="fill:#ffffff" /><path
         d="m 331.474,730.983 h -2.636 v -22.458 l -3.554,10.746 h -2.586 l -3.554,-10.746 v 22.458 h -2.636 v -26.188 h 3.554 l 3.938,11.935 3.921,-11.935 h 3.554 v 26.188 z"
         id="path15"
         inkscape:connector-curvature="0"
         style="fill:#ffffff" /><path
         d="m 338.414,704.794 h 5.974 c 2.258,0 4.065,0.631 5.422,1.894 1.357,1.262 2.036,3 2.036,5.215 0,2.228 -0.676,4.006 -2.027,5.336 -1.351,1.33 -3.123,1.995 -5.314,1.995 h -3.354 v 11.749 h -2.736 v -26.189 z m 2.736,11.786 h 2.97 c 3.215,0 4.822,-1.497 4.822,-4.492 0,-1.386 -0.437,-2.506 -1.31,-3.359 -0.874,-0.854 -2,-1.28 -3.379,-1.28 h -3.104 v 9.131 z"
         id="path17"
         inkscape:connector-curvature="0"
         style="fill:#ffffff" /><path
         d="m 371.667,722.742 c 0,3.032 -0.554,5.247 -1.66,6.646 -1.107,1.397 -2.79,2.097 -5.047,2.097 -4.549,0 -6.824,-2.889 -6.824,-8.668 v -18.021 h 2.736 v 17.743 c 0,4.183 1.362,6.273 4.087,6.273 1.368,0 2.372,-0.494 3.011,-1.484 0.639,-0.99 0.96,-2.599 0.96,-4.826 v -17.706 h 2.736 v 17.946 z"
         id="path19"
         inkscape:connector-curvature="0"
         style="fill:#ffffff" /><path
         d="M 394.058,707.263 H 386.8 v 23.72 h -2.72 v -23.72 h -7.291 v -2.469 h 17.269 v 2.469 z"
         id="path21"
         inkscape:connector-curvature="0"
         style="fill:#ffffff" /><path
         d="m 412.227,730.983 h -12.296 v -26.188 h 12.196 v 2.654 h -9.46 v 8.11 h 9.093 v 2.654 h -9.093 v 10.115 h 9.56 v 2.655 z"
         id="path23"
         inkscape:connector-curvature="0"
         style="fill:#ffffff" /><path
         d="m 435.752,730.983 h -3.42 l -6.907,-11.897 h -3.037 v 11.897 h -2.736 v -26.188 h 6.657 c 2.236,0 4.002,0.604 5.298,1.81 1.295,1.206 1.943,2.886 1.943,5.039 0,1.597 -0.473,3.016 -1.418,4.26 -0.946,1.243 -2.247,2.088 -3.904,2.533 l 7.524,12.546 z m -13.364,-14.551 h 3.454 c 1.445,0 2.619,-0.437 3.521,-1.309 0.9,-0.873 1.351,-1.971 1.351,-3.295 0,-2.92 -1.602,-4.38 -4.805,-4.38 h -3.521 v 8.984 z"
         id="path25"
         inkscape:connector-curvature="0"
         style="fill:#ffffff" /><path
         d="m 461.446,704.794 h 5.974 c 2.258,0 4.065,0.631 5.422,1.894 1.357,1.262 2.036,3 2.036,5.215 0,2.228 -0.676,4.006 -2.027,5.336 -1.351,1.33 -3.123,1.995 -5.314,1.995 h -3.354 v 11.749 h -2.736 v -26.189 z m 2.737,11.786 h 2.97 c 3.215,0 4.822,-1.497 4.822,-4.492 0,-1.386 -0.437,-2.506 -1.31,-3.359 -0.874,-0.854 -2,-1.28 -3.379,-1.28 h -3.104 v 9.131 z"
         id="path27"
         inkscape:connector-curvature="0"
         style="fill:#ffffff" /><path
         d="m 497.268,730.983 h -3.421 l -6.907,-11.897 h -3.036 v 11.897 h -2.736 v -26.188 h 6.657 c 2.235,0 4.001,0.604 5.297,1.81 1.296,1.206 1.944,2.886 1.944,5.039 0,1.597 -0.473,3.016 -1.418,4.26 -0.945,1.243 -2.247,2.088 -3.904,2.533 l 7.524,12.546 z m -13.364,-14.551 h 3.453 c 1.446,0 2.62,-0.437 3.521,-1.309 0.901,-0.873 1.352,-1.971 1.352,-3.295 0,-2.92 -1.602,-4.38 -4.805,-4.38 h -3.521 v 8.984 z"
         id="path29"
         inkscape:connector-curvature="0"
         style="fill:#ffffff" /><path
         d="m 508.397,704.293 c 2.636,0 4.647,1.16 6.032,3.479 1.385,2.32 2.077,5.695 2.077,10.125 0,4.405 -0.69,7.771 -2.069,10.097 -1.379,2.326 -3.393,3.489 -6.04,3.489 -2.625,0 -4.63,-1.16 -6.015,-3.479 -1.385,-2.32 -2.078,-5.689 -2.078,-10.106 0,-4.417 0.69,-7.789 2.069,-10.115 1.38,-2.327 3.388,-3.49 6.024,-3.49 z m 0,24.518 c 3.47,0 5.206,-3.638 5.206,-10.913 0,-7.288 -1.735,-10.932 -5.206,-10.932 -1.691,0 -2.978,0.943 -3.863,2.83 -0.884,1.887 -1.326,4.588 -1.326,8.102 0,3.552 0.439,6.258 1.318,8.12 0.879,1.862 2.169,2.793 3.871,2.793 z"
         id="path31"
         inkscape:connector-curvature="0"
         style="fill:#ffffff" /><path
         d="m 536.527,729.126 c -1.925,1.572 -4.055,2.357 -6.391,2.357 -3.059,0 -5.378,-1.153 -6.957,-3.461 -1.58,-2.308 -2.369,-5.683 -2.369,-10.125 0,-4.294 0.765,-7.635 2.294,-10.022 1.529,-2.387 3.873,-3.582 7.032,-3.582 1.135,0 2.258,0.161 3.371,0.482 1.112,0.322 2.007,0.749 2.686,1.28 l -0.901,2.395 c -1.568,-0.989 -3.287,-1.484 -5.156,-1.484 -2.158,0 -3.768,0.878 -4.83,2.635 -1.062,1.758 -1.593,4.523 -1.593,8.297 0,7.275 2.141,10.913 6.423,10.913 1.613,0 2.831,-0.377 3.654,-1.132 v -6.459 h -4.238 v -2.636 h 6.975 v 10.542 z"
         id="path33"
         inkscape:connector-curvature="0"
         style="fill:#ffffff" /><path
         d="m 558.784,730.983 h -3.42 l -6.907,-11.897 h -3.037 v 11.897 h -2.736 v -26.188 h 6.657 c 2.236,0 4.002,0.604 5.298,1.81 1.295,1.206 1.943,2.886 1.943,5.039 0,1.597 -0.473,3.016 -1.418,4.26 -0.946,1.243 -2.247,2.088 -3.904,2.533 l 7.524,12.546 z M 545.42,716.432 h 3.454 c 1.445,0 2.619,-0.437 3.521,-1.309 0.9,-0.873 1.351,-1.971 1.351,-3.295 0,-2.92 -1.602,-4.38 -4.805,-4.38 h -3.521 v 8.984 z"
         id="path35"
         inkscape:connector-curvature="0"
         style="fill:#ffffff" /><path
         d="m 579.323,730.983 h -2.87 l -2.603,-9.169 h -7.725 l -2.637,9.169 h -2.836 l 7.691,-26.188 h 3.287 l 7.693,26.188 z m -6.257,-11.823 -3.087,-10.839 -3.069,10.839 h 6.156 z"
         id="path37"
         inkscape:connector-curvature="0"
         style="fill:#ffffff" /><path
         d="m 598.043,730.983 h -2.636 v -22.458 l -3.554,10.746 h -2.586 l -3.554,-10.746 v 22.458 h -2.636 v -26.188 h 3.554 l 3.938,11.935 3.921,-11.935 h 3.554 v 26.188 z"
         id="path39"
         inkscape:connector-curvature="0"
         style="fill:#ffffff" /><path
         d="m 618.549,730.983 h -2.636 v -22.458 l -3.554,10.746 h -2.586 l -3.554,-10.746 v 22.458 h -2.636 v -26.188 h 3.554 l 3.938,11.935 3.921,-11.935 h 3.554 v 26.188 z"
         id="path41"
         inkscape:connector-curvature="0"
         style="fill:#ffffff" /><path
         d="m 636.701,730.983 h -10.694 v -2.654 h 4.054 v -20.88 h -4.054 v -2.654 h 10.694 v 2.654 h -3.904 v 20.88 h 3.904 v 2.654 z"
         id="path43"
         inkscape:connector-curvature="0"
         style="fill:#ffffff" /><path
         d="m 659.076,730.983 h -3.037 l -8.442,-20.676 v 20.676 h -2.736 v -26.188 h 3.053 l 8.476,20.49 v -20.49 h 2.686 v 26.188 z"
         id="path45"
         inkscape:connector-curvature="0"
         style="fill:#ffffff" /><path
         d="m 680.064,729.126 c -1.924,1.572 -4.054,2.357 -6.39,2.357 -3.059,0 -5.378,-1.153 -6.958,-3.461 -1.579,-2.308 -2.369,-5.683 -2.369,-10.125 0,-4.294 0.765,-7.635 2.294,-10.022 1.529,-2.388 3.874,-3.582 7.033,-3.582 1.134,0 2.258,0.161 3.37,0.482 1.112,0.322 2.008,0.749 2.687,1.28 l -0.901,2.395 c -1.568,-0.989 -3.287,-1.484 -5.155,-1.484 -2.158,0 -3.769,0.878 -4.83,2.635 -1.062,1.758 -1.594,4.523 -1.594,8.297 0,7.275 2.141,10.913 6.424,10.913 1.612,0 2.831,-0.377 3.654,-1.132 v -6.459 h -4.238 v -2.636 h 6.974 v 10.542 z"
         id="path47"
         inkscape:connector-curvature="0"
         style="fill:#ffffff" /><path
         d="m 721.109,729.349 c -1.846,1.424 -3.988,2.135 -6.423,2.135 -3.048,0 -5.364,-1.163 -6.949,-3.489 -1.585,-2.326 -2.378,-5.691 -2.378,-10.097 0,-4.257 0.768,-7.588 2.303,-9.995 1.535,-2.406 3.876,-3.609 7.024,-3.609 1.134,0 2.258,0.161 3.37,0.482 1.112,0.322 2.008,0.749 2.687,1.28 l -0.901,2.395 c -1.568,-0.989 -3.287,-1.484 -5.155,-1.484 -2.169,0 -3.782,0.875 -4.839,2.626 -1.057,1.751 -1.585,4.52 -1.585,8.306 0,7.275 2.141,10.913 6.424,10.913 1.812,0 3.67,-0.618 5.572,-1.855 l 0.85,2.392 z"
         id="path49"
         inkscape:connector-curvature="0"
         style="fill:#ffffff" /><path
         d="m 733.956,704.293 c 2.636,0 4.646,1.16 6.031,3.479 1.385,2.32 2.077,5.695 2.077,10.125 0,4.405 -0.689,7.771 -2.068,10.097 -1.38,2.326 -3.393,3.489 -6.04,3.489 -2.625,0 -4.63,-1.16 -6.015,-3.479 -1.385,-2.32 -2.077,-5.689 -2.077,-10.106 0,-4.417 0.689,-7.789 2.068,-10.115 1.38,-2.327 3.388,-3.49 6.024,-3.49 z m 0,24.518 c 3.471,0 5.206,-3.638 5.206,-10.913 0,-7.288 -1.735,-10.932 -5.206,-10.932 -1.691,0 -2.979,0.943 -3.862,2.83 -0.885,1.887 -1.327,4.588 -1.327,8.102 0,3.552 0.439,6.258 1.318,8.12 0.879,1.862 2.169,2.793 3.871,2.793 z"
         id="path51"
         inkscape:connector-curvature="0"
         style="fill:#ffffff" /><path
         d="m 761.602,730.983 h -3.037 l -8.442,-20.676 v 20.676 h -2.736 v -26.188 h 3.053 l 8.476,20.49 v -20.49 h 2.687 v 26.188 z"
         id="path53"
         inkscape:connector-curvature="0"
         style="fill:#ffffff" /><path
         d="m 783.659,707.263 h -7.258 v 23.72 h -2.719 v -23.72 h -7.292 v -2.469 h 17.269 v 2.469 z"
         id="path55"
         inkscape:connector-curvature="0"
         style="fill:#ffffff" /><path
         d="m 804.849,730.983 h -3.42 l -6.907,-11.897 h -3.037 v 11.897 h -2.736 v -26.188 h 6.657 c 2.236,0 4.002,0.604 5.298,1.81 1.295,1.206 1.943,2.886 1.943,5.039 0,1.597 -0.473,3.016 -1.418,4.26 -0.946,1.243 -2.247,2.088 -3.904,2.533 l 7.524,12.546 z m -13.365,-14.551 h 3.454 c 1.445,0 2.619,-0.437 3.521,-1.309 0.9,-0.873 1.351,-1.971 1.351,-3.295 0,-2.92 -1.602,-4.38 -4.805,-4.38 h -3.521 v 8.984 z"
         id="path57"
         inkscape:connector-curvature="0"
         style="fill:#ffffff" /><path
         d="m 821.25,730.983 h -10.695 v -2.654 h 4.054 v -20.88 h -4.054 v -2.654 h 10.695 v 2.654 h -3.904 v 20.88 h 3.904 v 2.654 z"
         id="path59"
         inkscape:connector-curvature="0"
         style="fill:#ffffff" /><path
         d="m 839.352,716.618 c 1.568,0.408 2.797,1.2 3.688,2.375 0.89,1.176 1.335,2.574 1.335,4.195 0,2.375 -0.776,4.269 -2.328,5.679 -1.551,1.411 -3.417,2.116 -5.598,2.116 h -6.69 v -26.188 h 6.524 c 2.269,0 4.043,0.554 5.322,1.661 1.279,1.107 1.919,2.67 1.919,4.687 0,1.237 -0.37,2.339 -1.11,3.304 -0.74,0.965 -1.76,1.664 -3.062,2.098 v 0.073 z m -6.857,-1.412 h 3.204 c 3.348,0 5.022,-1.33 5.022,-3.99 0,-1.213 -0.412,-2.144 -1.234,-2.793 -0.823,-0.65 -2.03,-0.975 -3.621,-0.975 h -3.37 v 7.758 z m 0,13.122 h 3.104 c 1.813,0 3.251,-0.457 4.313,-1.373 1.062,-0.916 1.593,-2.172 1.593,-3.768 0,-1.695 -0.523,-3.007 -1.568,-3.936 -1.046,-0.928 -2.559,-1.392 -4.538,-1.392 h -2.903 v 10.469 z"
         id="path61"
         inkscape:connector-curvature="0"
         style="fill:#ffffff" /><path
         d="m 863.796,722.742 c 0,3.032 -0.554,5.247 -1.66,6.646 -1.107,1.397 -2.79,2.097 -5.047,2.097 -4.549,0 -6.824,-2.889 -6.824,-8.668 v -18.021 h 2.736 v 17.743 c 0,4.183 1.362,6.273 4.087,6.273 1.368,0 2.372,-0.494 3.011,-1.484 0.639,-0.99 0.96,-2.599 0.96,-4.826 v -17.706 h 2.736 v 17.946 z"
         id="path63"
         inkscape:connector-curvature="0"
         style="fill:#ffffff" /><path
         d="m 886.186,707.263 h -7.258 v 23.72 h -2.72 v -23.72 h -7.291 v -2.469 h 17.269 v 2.469 z"
         id="path65"
         inkscape:connector-curvature="0"
         style="fill:#ffffff" /><path
         d="m 897.999,704.293 c 2.636,0 4.646,1.16 6.031,3.479 1.385,2.32 2.077,5.695 2.077,10.125 0,4.405 -0.689,7.771 -2.068,10.097 -1.38,2.326 -3.393,3.489 -6.04,3.489 -2.625,0 -4.63,-1.16 -6.015,-3.479 -1.385,-2.32 -2.077,-5.689 -2.077,-10.106 0,-4.417 0.689,-7.789 2.068,-10.115 1.38,-2.327 3.388,-3.49 6.024,-3.49 z m 0,24.518 c 3.471,0 5.206,-3.638 5.206,-10.913 0,-7.288 -1.735,-10.932 -5.206,-10.932 -1.691,0 -2.979,0.943 -3.862,2.83 -0.885,1.887 -1.327,4.588 -1.327,8.102 0,3.552 0.439,6.258 1.318,8.12 0.879,1.862 2.169,2.793 3.871,2.793 z"
         id="path67"
         inkscape:connector-curvature="0"
         style="fill:#ffffff" /><path
         d="m 927.881,730.983 h -3.42 l -6.907,-11.897 h -3.037 v 11.897 h -2.736 v -26.188 h 6.657 c 2.236,0 4.002,0.604 5.298,1.81 1.295,1.206 1.943,2.886 1.943,5.039 0,1.597 -0.473,3.016 -1.418,4.26 -0.946,1.243 -2.247,2.088 -3.904,2.533 l 7.524,12.546 z m -13.364,-14.551 h 3.454 c 1.445,0 2.619,-0.437 3.521,-1.309 0.9,-0.873 1.351,-1.971 1.351,-3.295 0,-2.92 -1.602,-4.38 -4.805,-4.38 h -3.521 v 8.984 z"
         id="path69"
         inkscape:connector-curvature="0"
         style="fill:#ffffff" /><path
         d="m 967.14,729.126 c -1.924,1.572 -4.054,2.357 -6.39,2.357 -3.059,0 -5.378,-1.153 -6.958,-3.461 -1.579,-2.308 -2.369,-5.683 -2.369,-10.125 0,-4.294 0.765,-7.635 2.294,-10.022 1.529,-2.388 3.874,-3.582 7.033,-3.582 1.134,0 2.258,0.161 3.37,0.482 1.112,0.322 2.008,0.749 2.687,1.28 l -0.901,2.395 c -1.568,-0.989 -3.287,-1.484 -5.155,-1.484 -2.158,0 -3.769,0.878 -4.83,2.635 -1.062,1.758 -1.594,4.523 -1.594,8.297 0,7.275 2.141,10.913 6.424,10.913 1.612,0 2.831,-0.377 3.654,-1.132 v -6.459 h -4.238 v -2.636 h 6.974 v 10.542 z"
         id="path71"
         inkscape:connector-curvature="0"
         style="fill:#ffffff" /><path
         d="m 989.397,730.983 h -3.421 l -6.907,-11.897 h -3.036 v 11.897 h -2.736 v -26.188 h 6.657 c 2.235,0 4.001,0.604 5.297,1.81 1.296,1.206 1.944,2.886 1.944,5.039 0,1.597 -0.473,3.016 -1.418,4.26 -0.945,1.243 -2.247,2.088 -3.904,2.533 l 7.524,12.546 z m -13.364,-14.551 h 3.453 c 1.446,0 2.62,-0.437 3.521,-1.309 0.901,-0.873 1.352,-1.971 1.352,-3.295 0,-2.92 -1.602,-4.38 -4.805,-4.38 h -3.521 v 8.984 z"
         id="path73"
         inkscape:connector-curvature="0"
         style="fill:#ffffff" /><path
         d="m 1000.526,704.293 c 2.636,0 4.647,1.16 6.032,3.479 1.385,2.32 2.077,5.695 2.077,10.125 0,4.405 -0.69,7.771 -2.069,10.097 -1.379,2.326 -3.393,3.489 -6.04,3.489 -2.625,0 -4.63,-1.16 -6.015,-3.479 -1.385,-2.32 -2.078,-5.689 -2.078,-10.106 0,-4.417 0.69,-7.789 2.069,-10.115 1.38,-2.327 3.388,-3.49 6.024,-3.49 z m 0,24.518 c 3.47,0 5.206,-3.638 5.206,-10.913 0,-7.288 -1.735,-10.932 -5.206,-10.932 -1.691,0 -2.978,0.943 -3.863,2.83 -0.884,1.887 -1.326,4.588 -1.326,8.102 0,3.552 0.439,6.258 1.318,8.12 0.879,1.862 2.169,2.793 3.871,2.793 z"
         id="path75"
         inkscape:connector-curvature="0"
         style="fill:#ffffff" /><path
         d="m 1027.839,722.742 c 0,3.032 -0.554,5.247 -1.66,6.646 -1.107,1.397 -2.789,2.097 -5.047,2.097 -4.549,0 -6.824,-2.889 -6.824,-8.668 v -18.021 h 2.736 v 17.743 c 0,4.183 1.362,6.273 4.087,6.273 1.368,0 2.372,-0.494 3.011,-1.484 0.64,-0.99 0.96,-2.599 0.96,-4.826 v -17.706 h 2.736 v 17.946 z"
         id="path77"
         inkscape:connector-curvature="0"
         style="fill:#ffffff" /><path
         d="m 1035.597,704.794 h 5.974 c 2.258,0 4.065,0.631 5.422,1.894 1.357,1.262 2.036,3 2.036,5.215 0,2.228 -0.676,4.006 -2.027,5.336 -1.351,1.33 -3.123,1.995 -5.314,1.995 h -3.354 v 11.749 h -2.736 v -26.189 z m 2.736,11.786 h 2.97 c 3.215,0 4.822,-1.497 4.822,-4.492 0,-1.386 -0.437,-2.506 -1.31,-3.359 -0.874,-0.854 -2,-1.28 -3.379,-1.28 h -3.104 v 9.131 z"
         id="path79"
         inkscape:connector-curvature="0"
         style="fill:#ffffff" /></g><rect
       x="439.45901"
       y="577.99298"
       width="10.617"
       height="106.853"
       id="rect81"
       style="fill:#ffffff" /><polygon
       points="483.661,684.845 494.278,684.845 461.938,631.419 494.278,577.992 483.661,577.992 451.321,631.419 "
       id="polygon83"
       style="fill:#ffffff" /><polygon
       points="995.278,577.934 995.293,577.971 995.278,577.971 995.278,684.823 1005.895,684.823 1005.895,604.437 1038.097,684.823 1048.714,684.823 1048.714,577.971 1038.097,577.971 1038.097,658.32 1005.895,577.934 "
       id="polygon85"
       style="fill:#ffffff" /><polygon
       points="241.903,577.949 231.286,577.949 231.286,684.802 241.903,684.802 241.903,635.145 275.488,635.145 275.488,684.802 286.105,684.802 286.105,577.949 275.488,577.949 275.488,627.527 241.903,627.527 "
       id="polygon87"
       style="fill:#ffffff" /><polygon
       points="370.068,684.845 424.887,684.845 424.887,658.052 414.27,658.052 414.27,677.227 380.685,677.227 380.685,585.531 414.27,585.531 414.27,604.521 424.887,604.521 424.887,577.913 370.068,577.913 "
       id="polygon89"
       style="fill:#ffffff" /><path
       d="m 355.496,577.992 h -54.819 l 0,106.853 h 10.617 v -50.157 h 33.585 v 50.157 h 10.617 l 0,-106.853 z m -10.617,50.12 h -33.585 v -42.501 h 33.585 v 42.501 z"
       id="path91"
       inkscape:connector-curvature="0"
       style="fill:#ffffff" /><path
       d="m 771.842,577.992 h -54.819 l 0,106.853 h 10.617 v -50.157 h 33.585 v 50.157 h 10.617 l 0,-106.853 z m -10.617,50.12 H 727.64 v -42.501 h 33.585 v 42.501 z"
       id="path93"
       inkscape:connector-curvature="0"
       style="fill:#ffffff" /><polygon
       points="877.906,585.611 877.906,684.845 888.523,684.845 888.523,585.611 910.624,585.611 910.624,577.992 855.805,577.992 855.805,585.611 "
       id="polygon95"
       style="fill:#ffffff" /><polygon
       points="647.632,684.845 702.451,684.845 702.451,627.61 667.682,627.61 667.682,635.228 691.834,635.228 691.834,677.227 658.249,677.227 658.249,585.611 691.834,585.611 691.834,604.6 702.451,604.6 702.451,577.992 647.632,577.992 "
       id="polygon97"
       style="fill:#ffffff" /><path
       d="m 633.06,577.992 h -54.819 v 106.853 h 10.617 v -49.617 h 10.547 l 23.038,49.617 h 10.617 l -23.038,-49.617 h 23.038 v -57.236 z m -10.617,49.618 h -33.585 v -41.999 h 33.585 v 41.999 z"
       id="path99"
       inkscape:connector-curvature="0"
       style="fill:#ffffff" /><path
       d="m 841.233,577.992 h -54.819 v 106.853 h 10.617 v -49.617 h 10.547 l 23.038,49.617 h 10.617 l -23.038,-49.617 h 23.038 v -57.236 z m -10.617,49.618 h -33.585 v -41.999 h 33.585 v 41.999 z"
       id="path101"
       inkscape:connector-curvature="0"
       style="fill:#ffffff" /><polygon
       points="563.669,677.227 519.467,677.227 519.467,635.228 549.964,635.228 549.964,627.61 519.467,627.61 519.467,585.611 563.669,585.611 563.669,577.992 508.85,577.992 508.85,684.845 563.669,684.844 "
       id="polygon103"
       style="fill:#ffffff" /><polygon
       points="980.015,677.227 935.813,677.227 935.813,635.228 966.31,635.228 966.31,627.61 935.813,627.61 935.813,585.611 980.015,585.611 980.015,577.992 925.196,577.992 925.196,684.845 980.015,684.844 "
       id="polygon105"
       style="fill:#ffffff" /><polygon
       points="1059.111,709.966 1074.591,709.966 1074.591,552.75 1059.111,552.75 1059.111,540.72 1084.682,540.72 1084.682,722.037 1059.111,722.037 "
       id="polygon107"
       style="fill:#e03030" /><polygon
       points="220.889,709.966 205.409,709.966 205.409,552.75 220.889,552.75 220.889,540.72 195.318,540.72 195.318,722.037 220.889,722.037 "
       id="polygon109"
       style="fill:#00a357" /></g></svg>