<?xml version="1.0" encoding="UTF-8" standalone="no"?>
<!-- Generator: Adobe Illustrator 17.0.0, SVG Export Plug-In . SVG Version: 6.00 Build 0)  -->

<svg
   xmlns:dc="http://purl.org/dc/elements/1.1/"
   xmlns:cc="http://creativecommons.org/ns#"
   xmlns:rdf="http://www.w3.org/1999/02/22-rdf-syntax-ns#"
   xmlns:svg="http://www.w3.org/2000/svg"
   xmlns="http://www.w3.org/2000/svg"
   xmlns:sodipodi="http://sodipodi.sourceforge.net/DTD/sodipodi-0.dtd"
   xmlns:inkscape="http://www.inkscape.org/namespaces/inkscape"
   version="1.1"
   id="Capa_1"
   x="0px"
   y="0px"
   width="524.33698"
   height="604.61603"
   viewBox="0 0 524.33698 604.61603"
   enable-background="new 0 0 1280 1280"
   xml:space="preserve"
   inkscape:version="0.48.4 r9939"
   sodipodi:docname="LOGO-03.svg"><metadata
     id="metadata49"><rdf:RDF><cc:Work
         rdf:about=""><dc:format>image/svg+xml</dc:format><dc:type
           rdf:resource="http://purl.org/dc/dcmitype/StillImage" /><dc:title></dc:title></cc:Work></rdf:RDF></metadata><defs
     id="defs47" /><sodipodi:namedview
     pagecolor="#ffffff"
     bordercolor="#666666"
     borderopacity="1"
     objecttolerance="10"
     gridtolerance="10"
     guidetolerance="10"
     inkscape:pageopacity="0"
     inkscape:pageshadow="2"
     inkscape:window-width="640"
     inkscape:window-height="480"
     id="namedview45"
     showgrid="false"
     fit-margin-top="0"
     fit-margin-left="0"
     fit-margin-right="0"
     fit-margin-bottom="0"
     inkscape:zoom="0.184375"
     inkscape:cx="262.168"
     inkscape:cy="302.30803"
     inkscape:window-x="55"
     inkscape:window-y="24"
     inkscape:window-maximized="0"
     inkscape:current-layer="Capa_1" /><g
     id="g5"
     transform="translate(-377.832,-337.692)"><polygon
       points="621.694,608.572 495.314,608.572 495.314,421.035 458.702,421.035 458.702,836.221 495.314,836.221 495.314,639.836 621.694,639.836 621.694,836.221 821.298,836.221 821.298,608.572 700.432,608.572 700.432,639.836 784.618,639.836 784.618,805.029 658.306,805.029 658.306,448.195 784.618,448.195 784.618,522.261 821.298,522.261 821.298,421.035 621.694,421.035 "
       id="polygon7"
       style="fill:#ffffff" /><g
       id="g9"><polygon
         points="443.594,888.614 403.784,888.614 403.784,368.631 443.594,368.631 443.594,337.692 377.832,337.692 377.832,919.659 443.594,919.659 "
         id="polygon11"
         style="fill:#00a357" /><polygon
         points="836.406,888.614 876.216,888.614 876.216,368.631 836.406,368.631 836.406,337.692 902.169,337.692 902.169,919.659 836.406,919.659 "
         id="polygon13"
         style="fill:#e03030" /></g><g
       id="g15"><g
         id="g17"><rect
           x="551.04401"
           y="866.79303"
           width="4.71"
           height="75.514999"
           id="rect19"
           style="fill:#ffffff" /><polygon
           points="570.651,942.308 575.36,942.308 561.015,904.551 575.36,866.793 570.651,866.793 556.306,904.551 "
           id="polygon21"
           style="fill:#ffffff" /></g><polygon
         points="797.595,866.752 797.601,866.778 797.595,866.778 797.595,942.293 802.304,942.293 802.304,885.482 816.589,942.293 821.298,942.293 821.298,866.778 816.589,866.778 816.589,923.562 802.304,866.752 "
         id="polygon23"
         style="fill:#ffffff" /><polygon
         points="463.412,866.763 458.702,866.763 458.702,942.277 463.412,942.277 463.412,907.184 478.309,907.184 478.309,942.277 483.019,942.277 483.019,866.763 478.309,866.763 478.309,901.8 463.412,901.8 "
         id="polygon25"
         style="fill:#ffffff" /><polygon
         points="520.263,942.308 544.58,942.308 544.58,923.373 539.87,923.373 539.87,936.924 524.973,936.924 524.973,872.12 539.87,872.12 539.87,885.541 544.58,885.541 544.58,866.737 520.263,866.737 "
         id="polygon27"
         style="fill:#ffffff" /><path
         d="m 513.799,866.793 h -24.317 l 0,75.515 h 4.71 v -35.447 h 14.898 v 35.447 h 4.709 l 0,-75.515 z m -4.709,35.42 h -14.898 v -30.036 h 14.898 v 30.036 z"
         id="path29"
         inkscape:connector-curvature="0"
         style="fill:#ffffff" /><path
         d="m 698.483,866.793 h -24.317 l 0,75.515 h 4.71 v -35.447 h 14.898 v 35.447 h 4.709 l 0,-75.515 z m -4.71,35.42 h -14.898 v -30.036 h 14.898 v 30.036 z"
         id="path31"
         inkscape:connector-curvature="0"
         style="fill:#ffffff" /><polygon
         points="745.531,872.177 745.531,942.308 750.24,942.308 750.24,872.177 760.044,872.177 760.044,866.793 735.727,866.793 735.727,872.177 "
         id="polygon33"
         style="fill:#ffffff" /><polygon
         points="643.385,942.308 667.702,942.308 667.702,901.859 652.279,901.859 652.279,907.242 662.992,907.242 662.992,936.924 648.095,936.924 648.095,872.177 662.992,872.177 662.992,885.597 667.702,885.597 667.702,866.793 643.385,866.793 "
         id="polygon35"
         style="fill:#ffffff" /><path
         d="m 636.922,866.793 h -24.317 v 75.515 h 4.71 v -35.066 h 4.678 l 10.219,35.066 h 4.71 l -10.219,-35.066 h 10.219 v -40.449 z m -4.71,35.066 h -14.898 v -29.682 h 14.898 v 29.682 z"
         id="path37"
         inkscape:connector-curvature="0"
         style="fill:#ffffff" /><path
         d="m 729.263,866.793 h -24.317 v 75.515 h 4.71 v -35.066 h 4.678 l 10.219,35.066 h 4.71 l -10.219,-35.066 h 10.219 v -40.449 z m -4.709,35.066 h -14.898 v -29.682 h 14.898 v 29.682 z"
         id="path39"
         inkscape:connector-curvature="0"
         style="fill:#ffffff" /><polygon
         points="606.141,936.924 586.534,936.924 586.534,907.242 600.062,907.242 600.062,901.859 586.534,901.859 586.534,872.177 606.141,872.177 606.141,866.793 581.824,866.793 581.824,942.308 606.141,942.307 "
         id="polygon41"
         style="fill:#ffffff" /><polygon
         points="790.824,936.924 771.217,936.924 771.217,907.242 784.745,907.242 784.745,901.859 771.217,901.859 771.217,872.177 790.824,872.177 790.824,866.793 766.508,866.793 766.507,942.308 790.824,942.307 "
         id="polygon43"
         style="fill:#ffffff" /></g></g></svg>