<?xml version="1.0" encoding="utf-8"?>
<!-- Generator: Adobe Illustrator 17.0.0, SVG Export Plug-In . SVG Version: 6.00 Build 0)  -->
<!DOCTYPE svg PUBLIC "-//W3C//DTD SVG 1.1//EN" "http://www.w3.org/Graphics/SVG/1.1/DTD/svg11.dtd">
<svg version="1.1" id="Capa_1" xmlns="http://www.w3.org/2000/svg" xmlns:xlink="http://www.w3.org/1999/xlink" x="0px" y="0px"
	 width="1280px" height="1280px" viewBox="0 0 1280 1280" enable-background="new 0 0 1280 1280" xml:space="preserve">
<rect x="0" y="0" width="1280" height="1280"/>
<g>
	<polygon fill="#FFFFFF" points="821.298,522.261 821.298,421.035 621.694,421.035 621.694,608.572 495.314,608.572 
		495.314,421.035 458.702,421.035 458.702,836.221 495.314,836.221 495.314,639.836 621.694,639.836 621.694,836.221 
		821.298,836.221 821.298,608.572 700.432,608.572 700.432,639.836 784.618,639.836 784.618,805.029 658.306,805.029 
		658.306,448.195 784.618,448.195 784.618,522.261 	"/>
	<g>
		<polygon fill="#00A357" points="377.832,337.692 377.832,919.659 443.594,919.659 443.594,888.614 403.784,888.614 
			403.784,368.631 443.594,368.631 443.594,337.692 		"/>
		<polygon fill="#E03030" points="902.169,337.692 902.169,919.659 836.406,919.659 836.406,888.614 876.216,888.614 
			876.216,368.631 836.406,368.631 836.406,337.692 		"/>
	</g>
	<g>
		<g>
			<rect x="551.044" y="866.793" fill="#FFFFFF" width="4.71" height="75.515"/>
			<polygon fill="#FFFFFF" points="575.36,866.793 570.651,866.793 556.306,904.551 570.651,942.308 575.36,942.308 
				561.015,904.551 			"/>
		</g>
		<polygon fill="#FFFFFF" points="816.589,866.778 816.589,923.562 802.304,866.752 797.595,866.752 797.601,866.778 
			797.595,866.778 797.595,942.293 802.304,942.293 802.304,885.482 816.589,942.293 821.298,942.293 821.298,866.778 		"/>
		<polygon fill="#FFFFFF" points="478.309,866.763 478.309,901.8 463.412,901.8 463.412,866.763 458.702,866.763 458.702,942.277 
			463.412,942.277 463.412,907.184 478.309,907.184 478.309,942.277 483.019,942.277 483.019,866.763 		"/>
		<polygon fill="#FFFFFF" points="544.58,885.541 544.58,866.737 520.263,866.737 520.263,942.308 544.58,942.308 544.58,923.373 
			539.87,923.373 539.87,936.924 524.973,936.924 524.973,872.12 539.87,872.12 539.87,885.541 		"/>
		<path fill="#FFFFFF" d="M513.799,866.793h-24.317l0,75.515h4.71v-35.447h14.898v35.447h4.709L513.799,866.793z M509.09,902.213
			h-14.898v-30.036h14.898V902.213z"/>
		<path fill="#FFFFFF" d="M698.483,866.793h-24.317l0,75.515h4.71v-35.447h14.898v35.447h4.709L698.483,866.793z M693.773,902.213
			h-14.898v-30.036h14.898V902.213z"/>
		<polygon fill="#FFFFFF" points="760.044,866.793 735.727,866.793 735.727,872.177 745.531,872.177 745.531,942.308 
			750.24,942.308 750.24,872.177 760.044,872.177 		"/>
		<polygon fill="#FFFFFF" points="667.702,885.597 667.702,866.793 643.385,866.793 643.385,942.308 667.702,942.308 
			667.702,901.859 652.279,901.859 652.279,907.242 662.992,907.242 662.992,936.924 648.095,936.924 648.095,872.177 
			662.992,872.177 662.992,885.597 		"/>
		<path fill="#FFFFFF" d="M636.922,866.793h-24.317v75.515h4.71v-35.066h4.678l10.219,35.066h4.71l-10.219-35.066h10.219V866.793z
			 M632.212,901.859h-14.898v-29.682h14.898V901.859z"/>
		<path fill="#FFFFFF" d="M729.263,866.793h-24.317v75.515h4.71v-35.066h4.678l10.219,35.066h4.71l-10.219-35.066h10.219V866.793z
			 M724.554,901.859h-14.898v-29.682h14.898V901.859z"/>
		<polygon fill="#FFFFFF" points="581.824,866.793 581.824,942.308 606.141,942.307 606.141,936.924 586.534,936.924 
			586.534,907.242 600.062,907.242 600.062,901.859 586.534,901.859 586.534,872.177 606.141,872.177 606.141,866.793 		"/>
		<polygon fill="#FFFFFF" points="766.508,866.793 766.507,942.308 790.824,942.307 790.824,936.924 771.217,936.924 
			771.217,907.242 784.745,907.242 784.745,901.859 771.217,901.859 771.217,872.177 790.824,872.177 790.824,866.793 		"/>
	</g>
</g>
</svg>
